<?xml version="1.0" encoding="UTF-8" standalone="no"?>
<svg
   width="64"
   height="64"
   version="1.1"
   viewBox="0 0 16.933 16.933"
   id="svg20"
   sodipodi:docname="fbmessenger.svg"
   inkscape:version="1.1.2 (0a00cf5339, 2022-02-04)"
   xmlns:inkscape="http://www.inkscape.org/namespaces/inkscape"
   xmlns:sodipodi="http://sodipodi.sourceforge.net/DTD/sodipodi-0.dtd"
   xmlns:xlink="http://www.w3.org/1999/xlink"
   xmlns="http://www.w3.org/2000/svg"
   xmlns:svg="http://www.w3.org/2000/svg"
   xmlns:rdf="http://www.w3.org/1999/02/22-rdf-syntax-ns#"
   xmlns:cc="http://creativecommons.org/ns#"
   xmlns:dc="http://purl.org/dc/elements/1.1/">
  <metadata
     id="metadata26">
    <rdf:RDF>
      <cc:Work
         rdf:about="">
        <dc:format>image/svg+xml</dc:format>
        <dc:type
           rdf:resource="http://purl.org/dc/dcmitype/StillImage" />
      </cc:Work>
    </rdf:RDF>
  </metadata>
  <defs
     id="defs24">
    <linearGradient
       inkscape:collect="always"
       id="linearGradient4002">
      <stop
         style="stop-color:#038ac4;stop-opacity:1;"
         offset="0"
         id="stop3998" />
      <stop
         style="stop-color:#038ac4;stop-opacity:0.9254902;"
         offset="0.12237056"
         id="stop4252" />
      <stop
         style="stop-color:#038ac4;stop-opacity:0.87058824;"
         offset="0.22484298"
         id="stop4642" />
      <stop
         style="stop-color:#038ac4;stop-opacity:0.83529412;"
         offset="0.30716667"
         id="stop4708" />
      <stop
         style="stop-color:#038ac4;stop-opacity:0.72941176;"
         offset="0.40735084"
         id="stop4970" />
      <stop
         style="stop-color:#038ac4;stop-opacity:0.56862745;"
         offset="0.51810777"
         id="stop6500" />
      <stop
         style="stop-color:#038ac4;stop-opacity:0.42745098;"
         offset="0.60616112"
         id="stop6696" />
      <stop
         style="stop-color:#038ac4;stop-opacity:0.23921569;"
         offset="0.7211749"
         id="stop6956" />
      <stop
         style="stop-color:#038ac4;stop-opacity:0.11764706;"
         offset="0.8210066"
         id="stop6958" />
      <stop
         style="stop-color:#038ac4;stop-opacity:0.07058824;"
         offset="0.87122929"
         id="stop4774" />
      <stop
         style="stop-color:#038ac4;stop-opacity:0.03137255;"
         offset="0.92447865"
         id="stop4512" />
      <stop
         style="stop-color:#038ac4;stop-opacity:0.01568627;"
         offset="0.96748877"
         id="stop4446" />
      <stop
         style="stop-color:#038ac4;stop-opacity:0;"
         offset="1"
         id="stop4000" />
    </linearGradient>
    <linearGradient
       inkscape:collect="always"
       id="linearGradient873">
      <stop
         style="stop-color:#0482b7;stop-opacity:1;"
         offset="0"
         id="stop869" />
      <stop
         style="stop-color:#0482b7;stop-opacity:0;"
         offset="1"
         id="stop871" />
    </linearGradient>
    <linearGradient
       inkscape:collect="always"
       id="linearGradient863">
      <stop
         style="stop-color:#59dfe1;stop-opacity:1;"
         offset="0"
         id="stop859" />
      <stop
         style="stop-color:#59dfe1;stop-opacity:0;"
         offset="1"
         id="stop861" />
    </linearGradient>
    <linearGradient
       inkscape:collect="always"
       id="linearGradient960">
      <stop
         style="stop-color:#d3eef5;stop-opacity:1;"
         offset="0"
         id="stop956" />
      <stop
         style="stop-color:#d3eef5;stop-opacity:0;"
         offset="1"
         id="stop958" />
    </linearGradient>
    <linearGradient
       inkscape:collect="always"
       id="linearGradient950">
      <stop
         style="stop-color:#ffffff;stop-opacity:0.88091832"
         offset="0"
         id="stop946" />
      <stop
         style="stop-color:#ffffff;stop-opacity:0.72424853"
         offset="1"
         id="stop948" />
    </linearGradient>
    <linearGradient
       inkscape:collect="always"
       xlink:href="#linearGradient1234"
       id="linearGradient1236"
       x1="342.63245"
       y1="348.09451"
       x2="403.47034"
       y2="348.09451"
       gradientUnits="userSpaceOnUse"
       gradientTransform="matrix(0.72888312,0,0,0.72888312,-247.60893,-226.52386)" />
    <linearGradient
       inkscape:collect="always"
       id="linearGradient1234">
      <stop
         style="stop-color:#4bd5d7;stop-opacity:1"
         offset="0"
         id="stop1230" />
      <stop
         style="stop-color:#0089c6;stop-opacity:1"
         offset="1"
         id="stop1232" />
    </linearGradient>
    <linearGradient
       inkscape:collect="always"
       xlink:href="#linearGradient950"
       id="linearGradient952"
       x1="5.3465843"
       y1="5.4569917"
       x2="5.3465843"
       y2="9.145874"
       gradientUnits="userSpaceOnUse" />
    <radialGradient
       inkscape:collect="always"
       xlink:href="#linearGradient960"
       id="radialGradient962"
       cx="6.3423862"
       cy="-4.0367899"
       fx="6.3423862"
       fy="-4.0367899"
       r="4.7889585"
       gradientTransform="matrix(0.2939745,-0.28983983,0.20715312,0.21010823,6.7249715,10.182002)"
       gradientUnits="userSpaceOnUse" />
    <radialGradient
       inkscape:collect="always"
       xlink:href="#linearGradient863"
       id="radialGradient865"
       cx="6.429945"
       cy="1.3293704"
       fx="6.429945"
       fy="1.3293704"
       r="5.8661875"
       gradientTransform="matrix(0.99999999,0,0,0.90632071,-0.37878088,0.66322282)"
       gradientUnits="userSpaceOnUse" />
    <radialGradient
       inkscape:collect="always"
       xlink:href="#linearGradient873"
       id="radialGradient875"
       cx="1.3947227"
       cy="9.2193308"
       fx="1.3947227"
       fy="9.2193308"
       r="5.8661875"
       gradientTransform="matrix(3.779602,0,0,3.4255317,38.434886,8.1915884)"
       gradientUnits="userSpaceOnUse" />
    <radialGradient
       inkscape:collect="always"
       xlink:href="#linearGradient4002"
       id="radialGradient4004"
       cx="8.9079142"
       cy="8.0722237"
       fx="8.9079142"
       fy="8.0722237"
       r="4.7889585"
       gradientTransform="matrix(0.65402816,0.5039911,-0.79513471,1.0318446,9.595525,-4.4238287)"
       gradientUnits="userSpaceOnUse" />
  </defs>
  <sodipodi:namedview
     pagecolor="#ffffff"
     bordercolor="#666666"
     borderopacity="1"
     objecttolerance="10"
     gridtolerance="10"
     guidetolerance="10"
     inkscape:pageopacity="0"
     inkscape:pageshadow="2"
     inkscape:window-width="1920"
     inkscape:window-height="1028"
     id="namedview22"
     showgrid="false"
     inkscape:zoom="10.032077"
     inkscape:cx="19.58717"
     inkscape:cy="33.243365"
     inkscape:window-x="0"
     inkscape:window-y="24"
     inkscape:window-maximized="1"
     inkscape:current-layer="svg20"
     inkscape:document-rotation="0"
     inkscape:pagecheckerboard="0" />
  <circle
     cx="-330.35"
     cy="-328.38"
     r="0"
     fill="#5e4aa6"
     stroke-width=".26458"
     id="circle2" />
  <circle
     cx="-65.741"
     cy="5.3371"
     r="0"
     fill="#5e4aa6"
     fill-rule="evenodd"
     stroke-width=".40965"
     id="circle4" />
  <path
     id="path1197"
     style="fill:url(#linearGradient1236);fill-opacity:1;stroke:none;stroke-width:3.60232;stroke-linecap:square;stroke-miterlimit:4;stroke-dasharray:none;stroke-opacity:1"
     d="M 24.302734 7.1015625 A 22.172384 19.164339 0 0 0 2.1308594 26.265625 A 22.172384 19.164339 0 0 0 10.394531 41.193359 L 9.3261719 45.902344 C 9.0535114 46.892615 10.173102 47.678984 11.011719 47.085938 L 15.689453 43.923828 A 22.172384 19.164339 0 0 0 24.302734 45.429688 A 22.172384 19.164339 0 0 0 27.871094 45.179688 A 18.100573 15.976915 0 0 1 26.9375 40.130859 A 18.100573 15.976915 0 0 1 44.910156 24.154297 A 18.100573 15.976915 0 0 1 45.037109 24.154297 A 18.100573 15.976915 0 0 1 46.34375 24.197266 A 22.172384 19.164339 0 0 0 24.302734 7.1015625 z "
     transform="scale(0.26457812)" />
  <path
     id="path1266"
     style="fill:#ffffff;fill-opacity:0.237218;stroke:none;stroke-width:0.786275;stroke-linecap:square;stroke-miterlimit:4;stroke-dasharray:none;stroke-opacity:1"
     d="m 11.882451,6.3905028 a 4.7890156,4.2271422 0 0 0 -4.755248,4.2271802 4.7890156,4.2271422 0 0 0 1.8520035,3.338656 4.7890156,4.2271422 0 0 1 -1.6798727,-3.215112 4.7890156,4.2271422 0 0 1 4.7552482,-4.227181 4.7890156,4.2271422 0 0 1 0.03353,0 4.7890156,4.2271422 0 0 1 2.935635,0.8873946 4.7890156,4.2271422 0 0 0 -3.107765,-1.0109378 4.7890156,4.2271422 0 0 0 -0.03353,0 z" />
  <path
     d="m 5.6451809,6.9195216 -3.175,1.66 3.175,-3.424 1.94,1.764 3.3520001,-1.474 -3.3510001,3.238"
     fill="#ffffff"
     id="path4"
     style="fill-opacity:1;fill:url(#linearGradient952)" />
  <path
     id="path867"
     style="fill:url(#radialGradient875);fill-opacity:1;stroke:none;stroke-width:3.60232;stroke-linecap:square;stroke-miterlimit:4;stroke-dasharray:none;stroke-opacity:1"
     d="M 24.302734 7.1015625 A 22.172384 19.164339 0 0 0 2.1308594 26.265625 A 22.172384 19.164339 0 0 0 10.394531 41.193359 L 9.3261719 45.902344 C 9.0535114 46.892615 10.173102 47.678984 11.011719 47.085938 L 15.689453 43.923828 A 22.172384 19.164339 0 0 0 24.302734 45.429688 A 22.172384 19.164339 0 0 0 27.871094 45.179688 A 18.100573 15.976915 0 0 1 26.9375 40.130859 A 18.100573 15.976915 0 0 1 44.910156 24.154297 A 18.100573 15.976915 0 0 1 45.037109 24.154297 A 18.100573 15.976915 0 0 1 46.34375 24.197266 A 22.172384 19.164339 0 0 0 24.302734 7.1015625 z "
     transform="scale(0.26457812)" />
  <path
     id="path859"
     style="fill:url(#radialGradient4004);fill-opacity:1;stroke:none;stroke-width:0.786275;stroke-linecap:square;stroke-miterlimit:4;stroke-dasharray:none;stroke-opacity:1"
     d="m 11.882254,6.3907008 a 4.7890156,4.2271422 0 0 0 -4.755249,4.2271812 4.7890156,4.2271422 0 0 0 4.788771,4.227181 4.7890156,4.2271422 0 0 0 1.777426,-0.302077 l 1.065553,0.719785 c 0.221879,0.156907 0.518097,-0.051 0.445956,-0.312998 l -0.242939,-1.070449 a 4.7890156,4.2271422 0 0 0 1.743151,-3.261442 4.7890156,4.2271422 0 0 0 -4.789147,-4.2271812 4.7890156,4.2271422 0 0 0 -0.03353,0 z" />
  <path
     id="ellipse1199-3"
     style="fill:#e8ecef;fill-opacity:0.69609052;stroke:none;stroke-width:0.786275;stroke-linecap:square;stroke-miterlimit:4;stroke-dasharray:none;stroke-opacity:1"
     d="m 11.882459,6.3905028 a 4.7890156,4.2271422 0 0 0 -4.755248,4.2271822 4.7890156,4.2271422 0 0 0 4.78877,4.227181 4.7890156,4.2271422 0 0 0 1.777426,-0.302077 l 1.065553,0.719785 c 0.221879,0.156907 0.518097,-0.051 0.445956,-0.312998 l -0.242939,-1.070449 a 4.7890156,4.2271422 0 0 0 1.743151,-3.261442 4.7890156,4.2271422 0 0 0 -4.789147,-4.2271822 4.7890156,4.2271422 0 0 0 -0.03353,0 z" />
  <path
     id="path932"
     style="fill:#ffffff;fill-opacity:0.15986158;stroke:none;stroke-width:2.97181;stroke-linecap:square;stroke-miterlimit:4;stroke-dasharray:none;stroke-opacity:1"
     d="M 44.910156 24.154297 A 18.100573 15.976915 0 0 0 26.9375 40.130859 A 18.100573 15.976915 0 0 0 33.873047 52.705078 A 18.100573 15.976915 0 0 1 27.705078 40.691406 A 18.100573 15.976915 0 0 1 45.677734 24.714844 A 18.100573 15.976915 0 0 1 45.804688 24.714844 A 18.100573 15.976915 0 0 1 56.970703 28.117188 A 18.100573 15.976915 0 0 0 45.037109 24.154297 A 18.100573 15.976915 0 0 0 44.910156 24.154297 z "
     transform="scale(0.26457812)" />
  <path
     id="path954"
     style="fill:url(#radialGradient962);fill-opacity:1;stroke:none;stroke-width:0.786275;stroke-linecap:square;stroke-miterlimit:4;stroke-dasharray:none;stroke-opacity:1;opacity:1"
     d="m 11.882459,6.3905028 a 4.7890156,4.2271422 0 0 0 -4.755248,4.2271822 4.7890156,4.2271422 0 0 0 4.78877,4.227181 4.7890156,4.2271422 0 0 0 1.777426,-0.302077 l 1.065553,0.719785 c 0.221879,0.156907 0.518097,-0.051 0.445956,-0.312998 l -0.242939,-1.070449 a 4.7890156,4.2271422 0 0 0 1.743151,-3.261442 4.7890156,4.2271422 0 0 0 -4.789147,-4.2271822 4.7890156,4.2271422 0 0 0 -0.03353,0 z" />
  <path
     id="path857"
     style="fill:url(#radialGradient865);fill-opacity:1;stroke:none;stroke-width:0.953095;stroke-linecap:square;stroke-miterlimit:4;stroke-dasharray:none;stroke-opacity:1"
     d="M 6.0511908,1.8680664 A 5.8663277,5.0704648 0 0 0 0.18499789,6.938458 5.8663277,5.0704648 0 0 0 2.3713846,10.88801 l -0.2826645,1.245894 c -0.07214,0.262004 0.2240792,0.47006 0.4459589,0.313153 l 1.2376261,-0.836625 a 5.8663277,5.0704648 0 0 0 2.2788857,0.398418 5.8663277,5.0704648 0 0 0 0.9456601,-0.06666 4.7890156,4.2271421 0 0 1 -0.2485587,-1.335292 4.7890156,4.2271421 0 0 1 4.7551718,-4.2270492 4.7890156,4.2271421 0 0 1 0.03359,0 4.7890156,4.2271421 0 0 1 0.345192,0.010852 5.8663277,5.0704648 0 0 0 -5.8310542,-4.5226321 z" />
</svg>
