<?xml version="1.0" encoding="UTF-8" standalone="no"?>
<svg
   width="64"
   height="64"
   version="1.1"
   viewBox="0 0 16.933 16.933"
   id="svg68"
   sodipodi:docname="org.mozilla.FirefoxBeta.svg"
   inkscape:version="1.1.2 (0a00cf5339, 2022-02-04)"
   xmlns:inkscape="http://www.inkscape.org/namespaces/inkscape"
   xmlns:sodipodi="http://sodipodi.sourceforge.net/DTD/sodipodi-0.dtd"
   xmlns:xlink="http://www.w3.org/1999/xlink"
   xmlns="http://www.w3.org/2000/svg"
   xmlns:svg="http://www.w3.org/2000/svg">
  <sodipodi:namedview
     id="namedview70"
     pagecolor="#000000"
     bordercolor="#666666"
     borderopacity="1.0"
     inkscape:pageshadow="2"
     inkscape:pageopacity="0"
     inkscape:pagecheckerboard="0"
     showgrid="false"
     showguides="true"
     inkscape:guide-bbox="true"
     inkscape:zoom="2.0000001"
     inkscape:cx="-155.49999"
     inkscape:cy="-29.999999"
     inkscape:window-width="1920"
     inkscape:window-height="998"
     inkscape:window-x="0"
     inkscape:window-y="0"
     inkscape:window-maximized="1"
     inkscape:current-layer="svg68" />
  <defs
     id="defs32">
    <linearGradient
       inkscape:collect="always"
       id="linearGradient28865">
      <stop
         style="stop-color:#f07f31;stop-opacity:1"
         offset="0"
         id="stop28859" />
      <stop
         style="stop-color:#f8a743;stop-opacity:1"
         offset="0.61662024"
         id="stop28861" />
      <stop
         style="stop-color:#f8a943;stop-opacity:0.95686275;"
         offset="0.66959244"
         id="stop14975" />
      <stop
         style="stop-color:#f9c743;stop-opacity:0.5254902;"
         offset="0.78025407"
         id="stop15041" />
      <stop
         style="stop-color:#fad844;stop-opacity:0.30196078;"
         offset="0.84947246"
         id="stop14651" />
      <stop
         style="stop-color:#fdeb46;stop-opacity:0.06666667;"
         offset="0.93156117"
         id="stop14457" />
      <stop
         style="stop-color:#fef047;stop-opacity:0.01568627;"
         offset="0.96108657"
         id="stop13139" />
      <stop
         style="stop-color:#fff248;stop-opacity:0"
         offset="1"
         id="stop28863" />
    </linearGradient>
    <linearGradient
       inkscape:collect="always"
       id="linearGradient13418">
      <stop
         style="stop-color:#f03131;stop-opacity:1"
         offset="0"
         id="stop13414" />
      <stop
         style="stop-color:#ffa464;stop-opacity:1"
         offset="0.77415967"
         id="stop13666" />
      <stop
         style="stop-color:#ffa464;stop-opacity:0.94901961;"
         offset="0.79423761"
         id="stop8778" />
      <stop
         style="stop-color:#ffa464;stop-opacity:0.63921569;"
         offset="0.84783632"
         id="stop9228" />
      <stop
         style="stop-color:#ffa464;stop-opacity:0.31372549;"
         offset="0.89723766"
         id="stop10064" />
      <stop
         style="stop-color:#ffa464;stop-opacity:0.14117647;"
         offset="0.93273038"
         id="stop11030" />
      <stop
         style="stop-color:#ffa464;stop-opacity:0.09019608;"
         offset="0.94661188"
         id="stop11416" />
      <stop
         style="stop-color:#ffa464;stop-opacity:0.00392157;"
         offset="0.9852947"
         id="stop11482" />
      <stop
         style="stop-color:#ffa464;stop-opacity:0"
         offset="1"
         id="stop13416" />
    </linearGradient>
    <linearGradient
       inkscape:collect="always"
       id="linearGradient4408">
      <stop
         style="stop-color:#ef782f;stop-opacity:0.96078432"
         offset="0"
         id="stop4404" />
      <stop
         style="stop-color:#f8a743;stop-opacity:0.97254908"
         offset="0.68713963"
         id="stop6719" />
      <stop
         style="stop-color:#fff248;stop-opacity:0"
         offset="1"
         id="stop4406" />
    </linearGradient>
    <linearGradient
       inkscape:collect="always"
       id="linearGradient1117">
      <stop
         style="stop-color:#ffbf48;stop-opacity:1"
         offset="0"
         id="stop1113" />
      <stop
         style="stop-color:#ee922e;stop-opacity:0.95686269"
         offset="1"
         id="stop1115" />
    </linearGradient>
    <filter
       id="filter918"
       x="-0.043041129"
       y="-0.054250033"
       width="1.0860823"
       height="1.1085001"
       color-interpolation-filters="sRGB">
      <feGaussianBlur
         stdDeviation="0.74462109"
         id="feGaussianBlur2" />
    </filter>
    <clipPath
       id="clipPath924">
      <path
         d="m5.2472 32.628c2.0863 12.328 13.259 21.741 25.944 22.1 11.739 0.332 19.239-6.4828 22.337-13.131 2.6236-5.7458 2.925-12.283 0.84123-18.246v-0.02634c0-0.01977-0.0042-0.03296 0-0.02634l0.0049 0.04546c0.95907 6.2617-2.2258 12.328-7.2047 16.43-5.3136 3.8298-14.659 7.3755-20.88 3.5225-0.1311-0.0627-0.26222-0.12802-0.39334-0.19586-5.6562-2.7036-7.9931-7.857-7.4923-12.277-2.743 0.04041-5.2526-1.5382-6.4038-4.0283 3.019-1.8495 6.7813-2.0006 9.9388-0.39901 3.2015 1.4533 6.8445 1.5966 10.15 0.39901-0.01048-0.21971-4.7154-2.0925-6.5497-3.899-0.98001-0.96607-1.4452-1.4313-1.8575-1.7808-0.22279-0.18871-0.45564-0.36521-0.69753-0.52873-0.16043-0.10936-0.34109-0.22795-0.55802-0.37038-1.9719-1.282-5.8932-1.2116-6.0232-1.2081h-0.01255c-1.0713-1.3571-0.99596-5.8353-0.93462-6.7704-0.31696 0.12737-0.61952 0.288-0.90261 0.47918-0.9458 0.67503-1.83 1.4325-2.6422 2.2635-0.92886 0.93575-1.7777 1.9477-2.5376 3.0252v0.0033-0.0033c-1.738 2.464-2.9708 5.2478-3.6271 8.1908-0.013266 0.05501-0.97374 4.2543-0.50012 6.4318z"
         fill="#ff6333"
         opacity=".8"
         stroke-width=".69753"
         id="path5" />
    </clipPath>
    <filter
       id="filter945"
       x="-0.048781015"
       y="-0.047243428"
       width="1.097562"
       height="1.0944869"
       color-interpolation-filters="sRGB">
      <feGaussianBlur
         stdDeviation="0.29038385"
         id="feGaussianBlur8" />
    </filter>
    <clipPath
       id="clipPath959">
      <path
         d="m10.695 0.85471c-1.7966 1.0519-2.4058 2.9992-2.4618 3.9733 0.083416-0.0061 0.16588-0.012919 0.25114-0.012919a3.6098 3.6098 0 0 1 2.4613 0.97512 3.6098 3.6098 0 0 1 1e-3 0.00103c0.0022 0.0022 4e-3 0.00451 0.0062 0.00672 0.29333 0.298 0.5184 0.59045 0.66506 0.84799 0.0393 0.029719 0.12074 0.098545 0.15192 0.12712 1.1228 1.0684 1.2131 2.5169 0.65421 3.7888 0.01832-0.01293 0.03835-0.0258 0.05633-0.03876 1.3104-1.0798 2.15-2.6736 1.9089-4.3211-0.0016-0.00489-0.0031-0.013298-0.0047-0.018086-0.80898-2.0171-2.1804-2.8298-3.3004-4.6001-0.056659-0.089506-0.11329-0.1792-0.16846-0.27388-0.03156-0.054034-0.05659-0.10295-0.07855-0.14779-0.04645-0.089957-0.08255-0.18493-0.10697-0.28318 7.9e-5 -0.009395-0.0067-0.016959-0.01602-0.018086-0.0044-0.001209-0.0091-0.001209-0.01343 0-9.53e-4 0-0.0025 0.00155-0.0036 0.00155-0.0011 3.6512e-4 -0.0036 0.001712-0.0052 0.002585-0.0424 0.020112-0.1193 0.10392-0.20877 0.22892 0.08907-0.12859 0.16636-0.21464 0.20928-0.23512z"
         fill="#000000"
         opacity=".8"
         stroke-width=".18455"
         id="path11" />
    </clipPath>
    <filter
       id="filter1004"
       x="-0.081119863"
       y="-0.081119863"
       width="1.1622397"
       height="1.1622397"
       color-interpolation-filters="sRGB">
      <feGaussianBlur
         stdDeviation="0.25039673"
         id="feGaussianBlur14" />
    </filter>
    <clipPath
       id="clipPath1010">
      <path
         d="m4.0896 3.238c-0.083861 0.0337-0.16384 0.076023-0.23874 0.1266-0.25024 0.1786-0.48427 0.37906-0.69917 0.59892-0.24576 0.24758-0.47021 0.51537-0.67126 0.80045-0.45984 0.65191-0.78597 1.3886-0.95961 2.1673-0.0035098 0.014554-0.25812 1.1256-0.13281 1.7017h5.16e-4c0.55199 3.2617 3.508 5.7521 6.864 5.8471 3.1059 0.08784 5.0898-1.7151 5.9096-3.4741 0.69293-1.5176 0.77348-3.2438 0.2253-4.8192 0.24867 1.653-0.59278 3.2535-1.9073 4.3366-0.02483 0.0179-0.05255 0.03539-0.07803 0.05323-0.08693 0.06085-0.17728 0.12121-0.2713 0.18086 0.09386-0.05956 0.18448-0.12009 0.2713-0.18086 0.23378-0.55673 0.34627-1.1184 0.33589-1.6149-0.03358-1.6063-1.0906-2.6812-2.3853-2.7496-0.14138-0.00748-0.35505 0.00274-0.46094 0.016536 2.5727 1.2863 1.8822 5.7156-1.6831 5.5484-0.31744-0.01296-0.63115-0.0734-0.93067-0.17931-0.070006-0.0262-0.1398-0.05515-0.2098-0.0863-0.022825-0.01043-0.045506-0.02153-0.068212-0.03256 1.3133 0.77987 3.1314 0.34606 4.5206-0.37155 0.10686-0.0552 0.21076-0.11188 0.31212-0.17001 0.09857-0.05654 0.19422-0.11459 0.2868-0.17311-0.09274 0.05862-0.18802 0.11648-0.2868 0.17311-0.10137 0.05812-0.20524 0.11481-0.31212 0.17001-1.39 0.71793-3.2075 1.1513-4.5206 0.37155-0.014335-0.0085-0.029711-0.01445-0.043924-0.02325-0.00721-0.0035-0.014491-0.0073-0.021703-0.01085-0.86681-0.45318-1.5807-1.3024-1.6701-2.3326h-5.291e-4s0.33021-1.2304 2.3642-1.2304c0.2198 0 0.84914-0.61324 0.8604-0.79115l0.00206-0.00103c-0.0027664-0.058133-1.2479-0.55348-1.7332-1.0314-0.25929-0.2556-0.38236-0.37882-0.49143-0.47128-0.058945-0.049929-0.12048-0.096261-0.18448-0.13952-0.042447-0.028935-0.089881-0.0605-0.14728-0.098183-0.09913-0.06445-0.21976-0.1128-0.34571-0.15399-0.021441-0.0070114-0.042212-0.014761-0.064078-0.021187-0.032817-0.0096439-0.064701-0.019513-0.098183-0.027905-0.065798-0.017634-0.13226-0.0319-0.19947-0.043924-6.879e-4 -1.241e-4 -0.0013758-3.969e-4 -0.0020637-5.292e-4 -0.061327-0.011176-0.12073-0.018854-0.18035-0.026871-0.00582-7.937e-4 -0.011776-0.00183-0.017571-0.00259-0.046827-0.00611-0.085744-0.010012-0.13022-0.01447-0.01248-0.00124-0.020957-0.00146-0.033072-0.00259-0.27996-0.025926-0.5076-0.02626-0.52295-0.025844h-0.00362c-0.28345-0.35907-0.26324-1.5437-0.24701-1.7911zm10.298 2.9486c-5.29e-4 -0.00345-5.03e-4 -0.00689-1e-3 -0.010334l-0.0016-0.011885c-0.0011-0.00175 0 0.00148 0 0.00672v0.00723c9.52e-4 0.00274 0.0016 0.00553 0.0026 0.00827zm-9.9113 0.50797c-0.22656 0.0091-0.45201 0.046811-0.67075 0.11265 0.2187-0.06594 0.44418-0.10356 0.67075-0.11265zm-1.0097 0.84076c0.11643 0.13166 0.25049 0.24521 0.3979 0.33796-0.14739-0.092717-0.28148-0.20632-0.3979-0.33796zm2.4256 3.223c0.066585 0.06166 0.13657 0.12179 0.2098 0.17983 0.21968 0.17413 0.46922 0.33096 0.74981 0.46508-0.28059-0.13412-0.53013-0.29094-0.74981-0.46508-0.073328-0.058127-0.14314-0.11807-0.2098-0.17983z"
         fill="#000000"
         opacity=".8"
         stroke-width=".18455"
         id="path17" />
    </clipPath>
    <filter
       id="filter1018"
       x="-0.048599118"
       y="-0.047415603"
       width="1.0971982"
       height="1.0948312"
       color-interpolation-filters="sRGB">
      <feGaussianBlur
         stdDeviation="1.0934515"
         id="feGaussianBlur20" />
    </filter>
    <clipPath
       id="clipPath1024">
      <path
         d="m32.062 18.219a14 14 0 0 0-8.4531 2.8418c0.02331 0.01927 0.04917 0.03513 0.07227 0.05469 0.41224 0.34946 0.87741 0.81518 1.8574 1.7812 1.8342 1.8065 6.5403 3.6787 6.5508 3.8984l-0.0078 0.0039c-0.04256 0.67243-2.4212 2.9902-3.252 2.9902-7.6875 1e-6 -8.9355 4.6504-8.9355 4.6504h2e-3c0.33825 3.894 3.0363 7.1036 6.3125 8.8164 0.02726 0.01326 0.05477 0.02798 0.08203 0.04102 0.05372 0.03327 0.11183 0.05571 0.16602 0.08789 0.08582 0.04165 0.17154 0.0836 0.25781 0.12305 0.2646 0.11771 0.52838 0.22713 0.79297 0.32617 1.1321 0.40032 2.3178 0.62876 3.5176 0.67774 13.475 0.63195 16.085-16.109 6.3613-20.971 0.40023-0.05216 1.2078-0.09076 1.7422-0.0625 1.9373 0.10246 3.7278 0.80875 5.1992 1.9922a14 14 0 0 0-12.266-7.252zm8.6094 25.039c-0.70907 0.2776-1.4248 0.5428-2.1582 0.76172 0.73277-0.21874 1.4477-0.4824 2.1562-0.75976a14 14 0 0 0 2e-3 -2e-3z"
         fill="#9a46eb"
         opacity=".8"
         stroke-linecap="round"
         stroke-linejoin="round"
         stroke-width="1.6154"
         style="paint-order:stroke fill markers"
         id="path23" />
    </clipPath>
    <filter
       id="filter4100"
       x="-0.14700035"
       y="-0.14700035"
       width="1.2940007"
       height="1.2940007"
       color-interpolation-filters="sRGB">
      <feGaussianBlur
         stdDeviation="0.45480679"
         id="feGaussianBlur26" />
    </filter>
    <clipPath
       id="clipPath4104">
      <path
         d="m0 0v17.198h17.198v-17.198zm8.483 4.8203a3.7041 3.7041 0 0 1 3.2452 1.9187c-0.3893-0.31312-0.86303-0.49998-1.3756-0.52709-0.14139-0.00748-0.35505 0.00274-0.46094 0.016536 2.5727 1.2864 1.8821 5.7156-1.6831 5.5484-0.31744-0.01296-0.63114-0.0734-0.93067-0.17931-0.070005-0.0262-0.13979-0.05515-0.2098-0.0863-0.022825-0.01044-0.045506-0.02153-0.068211-0.03256-0.014338-0.0085-0.029711-0.01445-0.043924-0.02325-0.00721-0.0035-0.014491-0.0073-0.021703-0.01085-0.86682-0.45317-1.5807-1.3024-1.6702-2.3326h-5.292e-4s0.33019-1.2304 2.3642-1.2304c0.21981 3e-7 0.84914-0.61324 0.8604-0.79115l0.00206-0.00103c-0.0027743-0.05813-1.2479-0.55348-1.7332-1.0314-0.25929-0.25559-0.38236-0.37882-0.49143-0.47128-0.0061117-0.0051751-0.012954-0.0093687-0.019121-0.01447a3.7041 3.7041 0 0 1 2.2365-0.75188z"
         fill="#9a46eb"
         opacity=".35"
         stroke-linecap="square"
         stroke-width=".52916"
         id="path29" />
    </clipPath>
    <linearGradient
       inkscape:collect="always"
       xlink:href="#linearGradient1117"
       id="linearGradient1119"
       x1="-11.503868"
       y1="4.14329"
       x2="-12.074113"
       y2="6.1641479"
       gradientUnits="userSpaceOnUse"
       gradientTransform="matrix(2.8209224,-2.3034121,2.8209224,2.3034121,27.636363,-28.489993)" />
    <linearGradient
       inkscape:collect="always"
       xlink:href="#linearGradient13418"
       id="linearGradient25126"
       gradientUnits="userSpaceOnUse"
       gradientTransform="matrix(0.96356254,0,0,0.96356254,27.636363,-28.489993)"
       x1="-15.55801"
       y1="45.881859"
       x2="-25.568071"
       y2="33.340992" />
    <linearGradient
       inkscape:collect="always"
       xlink:href="#linearGradient4408"
       id="linearGradient27875"
       gradientUnits="userSpaceOnUse"
       gradientTransform="matrix(0.96356252,0,0,0.96356252,27.64251,-28.478968)"
       x1="-19.279884"
       y1="40.547009"
       x2="-14.818539"
       y2="34.394047" />
    <linearGradient
       inkscape:collect="always"
       xlink:href="#linearGradient28865"
       id="linearGradient11843"
       gradientUnits="userSpaceOnUse"
       gradientTransform="matrix(0.96356254,0,0,0.96356254,27.642511,-28.478968)"
       x1="-19.279884"
       y1="40.547009"
       x2="-14.125469"
       y2="33.380348" />
  </defs>
  <g
     id="g17820"
     transform="matrix(1.142516,0,0,1.142516,-1.5674738,-1.7359344)">
    <path
       id="path3329-2"
       style="fill:#901000;fill-opacity:0.0386951;stroke:none;stroke-width:0.843369"
       d="m 4.3462216,1.727157 c -0.01304,-4.561e-4 -0.02591,-1.738e-4 -0.03876,5.168e-4 -0.150228,0.00808 -0.283697,0.094999 -0.283697,0.2635446 V 5.329967 5.339787 8.88007 l -1.29602,1.058829 c -0.466724,0.381102 -0.466724,0.996046 0,1.37715 l 5.2760607,4.307662 c 0.234609,0.191572 0.540263,0.287308 0.846441,0.286282 v 0.06098 c 0,-0.212521 0.03232,-0.448352 0.09302,-0.699169 0.01256,-0.05189 0.02628,-0.104477 0.04134,-0.157609 -0.01501,0.05296 -0.02882,0.105876 -0.04134,0.157609 -0.05501,0.22731 -0.08613,0.441726 -0.09147,0.638192 0.302376,-0.0013 0.604929,-0.09709 0.836625,-0.286282 l 5.2760617,-4.307662 c 0.466726,-0.381104 0.466726,-0.996048 0,-1.37715 L 13.691203,8.899704 V 5.3397853 1.9912184 c 0,-0.1108854 -0.0576,-0.1860124 -0.140041,-0.2268551 -0.0081,-0.00402 -0.01677,-0.00802 -0.02532,-0.011368 -1.49e-4,-5.84e-5 -3.67e-4,5.8e-5 -5.16e-4,0 -0.0087,-0.0034 -0.01726,-0.00659 -0.02636,-0.0093 -0.03637,-0.010834 -0.07581,-0.016092 -0.115753,-0.016019 -0.08388,1.521e-4 -0.170386,0.023734 -0.241841,0.071829 -0.01021,0.00687 -0.02044,0.014343 -0.02997,0.02222 L 11.273307,3.342016 8.8569653,5.3397875 v 0.00517 c -0.0016,-1.24e-5 -0.0036,-1.5e-6 -0.0052,0 v -0.00155 l 0.0052,-0.00362 -0.0052,-0.00413 v -0.00568 h -0.0067 L 6.4406093,3.3420243 h -5.16e-4 L 4.6035476,1.8217336 c -0.07225,-0.059735 -0.166081,-0.091373 -0.257341,-0.094566 z m 8.3590144,9.104691 c -0.03896,0.01836 -0.07779,0.0372 -0.11627,0.05633 0.03844,-0.01911 0.07735,-0.03798 0.11627,-0.05633 z m -0.674881,0.369996 c -0.01868,0.01175 -0.03726,0.02374 -0.05581,0.03566 0.01859,-0.01195 0.03708,-0.02388 0.05581,-0.03566 z m -5.7674937,0.411853 c 0.06593,0.05191 0.130554,0.104772 0.194299,0.158643 0.06375,0.05387 0.126582,0.108673 0.188099,0.164328 0.06152,0.05566 0.122134,0.112236 0.181381,0.169496 0.05925,0.05726 0.117214,0.114944 0.174146,0.173629 -0.05693,-0.05868 -0.114901,-0.11637 -0.174146,-0.173629 -0.05925,-0.05726 -0.119864,-0.11384 -0.181381,-0.169496 -0.06152,-0.05565 -0.124352,-0.110456 -0.188099,-0.164328 -0.06374,-0.05387 -0.128366,-0.106736 -0.194299,-0.158643 z m 5.1411877,0.03359 c -0.128879,0.10265 -0.253801,0.209044 -0.37413,0.318837 -0.06124,0.05588 -0.121387,0.112553 -0.180347,0.170012 -0.05896,0.05746 -0.116989,0.115801 -0.17363,0.174663 -0.04925,0.05119 -0.09722,0.102908 -0.144691,0.155026 0.04746,-0.0521 0.09544,-0.103856 0.144691,-0.155026 0.0567,-0.05892 0.114602,-0.117151 0.17363,-0.174663 0.05896,-0.05745 0.119109,-0.114148 0.180347,-0.170012 0.120363,-0.109802 0.24522,-0.216182 0.37413,-0.318837 z m -0.898636,0.84696 c -0.03843,0.04262 -0.07594,0.08552 -0.113169,0.128672 0.03724,-0.04316 0.07472,-0.08605 0.113169,-0.128672 z m -0.166911,0.191199 c -0.03159,0.03741 -0.06233,0.07491 -0.09302,0.112652 0.03065,-0.03769 0.06146,-0.07529 0.09302,-0.112652 z m -0.148825,0.180864 c -0.03371,0.04243 -0.06616,0.0854 -0.0987,0.128155 0.0326,-0.04282 0.06493,-0.08566 0.0987,-0.128155 z m -0.145208,0.189132 c -0.04217,0.05655 -0.08339,0.113571 -0.1235047,0.170529 0.04016,-0.05702 0.08128,-0.113917 0.1235047,-0.170529 z m -0.1281557,0.177246 c -0.04417,0.06287 -0.08705,0.125948 -0.128673,0.189133 -0.03423,0.05196 -0.06725,0.103993 -0.09973,0.156059 0.03251,-0.05211 0.06547,-0.104057 0.09973,-0.156059 0.04164,-0.0632 0.08448,-0.126255 0.128673,-0.189133 z m -0.260443,0.396351 c -0.02137,0.03488 -0.04196,0.0695 -0.06253,0.104384 0.02053,-0.0348 0.0412,-0.06958 0.06253,-0.104384 z m -0.118854,0.201534 c -0.02001,0.03517 -0.03921,0.07031 -0.05839,0.105418 0.01921,-0.03514 0.03836,-0.07021 0.05839,-0.105418 z m -0.09922,0.180347 c -0.02287,0.04311 -0.04455,0.08626 -0.06614,0.129189 0.02162,-0.04296 0.04325,-0.08605 0.06614,-0.129189 z m -1.100687,0.140041 c 0.0629,0.126067 0.120388,0.251157 0.172079,0.374646 -0.05169,-0.123489 -0.109176,-0.248579 -0.172079,-0.374646 z m 1.004571,0.04754 c -0.02561,0.05218 -0.04969,0.104273 -0.07338,0.15606 0.0237,-0.05179 0.04777,-0.103877 0.07338,-0.15606 z m -0.08423,0.179314 c -0.02595,0.05734 -0.05034,0.114345 -0.0739,0.171045 0.02358,-0.05674 0.04792,-0.113666 0.0739,-0.171045 z m -0.07958,0.183448 c -0.02329,0.05643 -0.04526,0.11281 -0.06614,0.168461 0.02094,-0.05581 0.04278,-0.111863 0.06614,-0.168461 z m -0.07286,0.186031 c -0.0193,0.05197 -0.0371,0.103351 -0.05426,0.154509 0.01714,-0.05109 0.03499,-0.102611 0.05426,-0.154509 z m -0.06459,0.184998 c -0.01514,0.04612 -0.02901,0.09159 -0.04237,0.13694 0.01335,-0.0453 0.02725,-0.09087 0.04237,-0.13694 z m -0.253212,0.476964 c 0.01109,0.05537 0.02093,0.110251 0.02894,0.163811 0.008,0.05356 0.01424,0.106044 0.01912,0.15761 -0.0049,-0.05157 -0.01111,-0.10405 -0.01912,-0.15761 -0.008,-0.05356 -0.01785,-0.108437 -0.02894,-0.163811 z" />
    <path
       id="path17813"
       style="fill:#901000;fill-opacity:0.0386951;stroke:none;stroke-width:0.843369"
       d="m 4.3627496,1.906476 c -0.01304,-4.561e-4 -0.02591,-1.738e-4 -0.03876,5.168e-4 -0.150228,0.00808 -0.283697,0.094999 -0.283697,0.2635446 v 3.3387486 0.00982 3.540283 l -1.29602,1.058829 c -0.466724,0.381102 -0.466724,0.996046 0,1.37715 l 5.2760607,4.307662 c 0.234609,0.191572 0.540263,0.287308 0.846441,0.286282 v 0.06098 c 0,-0.212521 0.03232,-0.448352 0.09302,-0.699169 0.01256,-0.05189 0.02628,-0.104477 0.04134,-0.157609 -0.01501,0.05296 -0.02882,0.105876 -0.04134,0.157609 -0.05501,0.22731 -0.08613,0.441726 -0.09147,0.638192 0.302376,-0.0013 0.604929,-0.09709 0.836625,-0.286282 l 5.2760617,-4.307662 c 0.466726,-0.381104 0.466726,-0.996048 0,-1.37715 L 13.707731,9.079023 V 5.5191043 2.1705374 c 0,-0.1108854 -0.0576,-0.1860124 -0.140041,-0.2268551 -0.0081,-0.00402 -0.01677,-0.00802 -0.02532,-0.011368 -1.49e-4,-5.84e-5 -3.67e-4,5.8e-5 -5.16e-4,0 -0.0087,-0.0034 -0.01726,-0.00659 -0.02636,-0.0093 -0.03637,-0.010834 -0.07581,-0.016092 -0.115753,-0.016019 -0.08388,1.521e-4 -0.170386,0.023734 -0.241841,0.071829 -0.01021,0.00687 -0.02044,0.014343 -0.02997,0.02222 L 11.289835,3.521335 8.8734933,5.5191065 v 0.00517 c -0.0016,-1.24e-5 -0.0036,-1.5e-6 -0.0052,0 v -0.00155 l 0.0052,-0.00362 -0.0052,-0.00413 v -0.00568 h -0.0067 L 6.4571373,3.5213433 h -5.16e-4 L 4.6200756,2.0010526 c -0.07225,-0.059735 -0.166081,-0.091373 -0.257341,-0.094566 z m 8.3590144,9.104691 c -0.03896,0.01836 -0.07779,0.0372 -0.11627,0.05633 0.03844,-0.01911 0.07735,-0.03798 0.11627,-0.05633 z m -0.674881,0.369996 c -0.01868,0.01175 -0.03726,0.02374 -0.05581,0.03566 0.01859,-0.01195 0.03708,-0.02388 0.05581,-0.03566 z m -5.7674937,0.411853 c 0.06593,0.05191 0.130554,0.104772 0.194299,0.158643 0.06375,0.05387 0.126582,0.108673 0.188099,0.164328 0.06152,0.05566 0.122134,0.112236 0.181381,0.169496 0.05925,0.05726 0.117214,0.114944 0.174146,0.173629 -0.05693,-0.05868 -0.114901,-0.11637 -0.174146,-0.173629 -0.05925,-0.05726 -0.119864,-0.11384 -0.181381,-0.169496 -0.06152,-0.05565 -0.124352,-0.110456 -0.188099,-0.164328 -0.06374,-0.05387 -0.128366,-0.106736 -0.194299,-0.158643 z m 5.1411877,0.03359 c -0.128879,0.10265 -0.253801,0.209044 -0.37413,0.318837 -0.06124,0.05588 -0.121387,0.112553 -0.180347,0.170012 -0.05896,0.05746 -0.116989,0.115801 -0.17363,0.174663 -0.04925,0.05119 -0.09722,0.102908 -0.144691,0.155026 0.04746,-0.0521 0.09544,-0.103856 0.144691,-0.155026 0.0567,-0.05892 0.114602,-0.117151 0.17363,-0.174663 0.05896,-0.05745 0.119109,-0.114148 0.180347,-0.170012 0.120363,-0.109802 0.24522,-0.216182 0.37413,-0.318837 z m -0.898636,0.84696 c -0.03843,0.04262 -0.07594,0.08552 -0.113169,0.128672 0.03724,-0.04316 0.07472,-0.08605 0.113169,-0.128672 z m -0.166911,0.191199 c -0.03159,0.03741 -0.06233,0.07491 -0.09302,0.112652 0.03065,-0.03769 0.06146,-0.07529 0.09302,-0.112652 z m -0.148825,0.180864 c -0.03371,0.04243 -0.06616,0.0854 -0.0987,0.128155 0.0326,-0.04282 0.06493,-0.08566 0.0987,-0.128155 z m -0.145208,0.189132 c -0.04217,0.05655 -0.08339,0.113571 -0.1235047,0.170529 0.04016,-0.05702 0.08128,-0.113917 0.1235047,-0.170529 z m -0.1281557,0.177246 c -0.04417,0.06287 -0.08705,0.125948 -0.128673,0.189133 -0.03423,0.05196 -0.06725,0.103993 -0.09973,0.156059 0.03251,-0.05211 0.06547,-0.104057 0.09973,-0.156059 0.04164,-0.0632 0.08448,-0.126255 0.128673,-0.189133 z m -0.260443,0.396351 c -0.02137,0.03488 -0.04196,0.0695 -0.06253,0.104384 0.02053,-0.0348 0.0412,-0.06958 0.06253,-0.104384 z m -0.118854,0.201534 c -0.02001,0.03517 -0.03921,0.07031 -0.05839,0.105418 0.01921,-0.03514 0.03836,-0.07021 0.05839,-0.105418 z m -0.09922,0.180347 c -0.02287,0.04311 -0.04455,0.08626 -0.06614,0.129189 0.02162,-0.04296 0.04325,-0.08605 0.06614,-0.129189 z m -1.100687,0.140041 c 0.0629,0.126067 0.120388,0.251157 0.172079,0.374646 -0.05169,-0.123489 -0.109176,-0.248579 -0.172079,-0.374646 z m 1.004571,0.04754 c -0.02561,0.05218 -0.04969,0.104273 -0.07338,0.15606 0.0237,-0.05179 0.04777,-0.103877 0.07338,-0.15606 z m -0.08423,0.179314 c -0.02595,0.05734 -0.05034,0.114345 -0.0739,0.171045 0.02358,-0.05674 0.04792,-0.113666 0.0739,-0.171045 z m -0.07958,0.183448 c -0.02329,0.05643 -0.04526,0.11281 -0.06614,0.168461 0.02094,-0.05581 0.04278,-0.111863 0.06614,-0.168461 z m -0.07286,0.186031 c -0.0193,0.05197 -0.0371,0.103351 -0.05426,0.154509 0.01714,-0.05109 0.03499,-0.102611 0.05426,-0.154509 z m -0.06459,0.184998 c -0.01514,0.04612 -0.02901,0.09159 -0.04237,0.13694 0.01335,-0.0453 0.02725,-0.09087 0.04237,-0.13694 z m -0.253212,0.476964 c 0.01109,0.05537 0.02093,0.110251 0.02894,0.163811 0.008,0.05356 0.01424,0.106044 0.01912,0.15761 -0.0049,-0.05157 -0.01111,-0.10405 -0.01912,-0.15761 -0.008,-0.05356 -0.01785,-0.108437 -0.02894,-0.163811 z" />
    <path
       id="path17815"
       style="fill:#901000;fill-opacity:0.0386951;stroke:none;stroke-width:0.843369"
       d="m 4.5183006,2.101803 c -0.01304,-4.561e-4 -0.02591,-1.738e-4 -0.03876,5.168e-4 -0.150228,0.00808 -0.283697,0.094999 -0.283697,0.2635446 v 3.3387486 0.00982 3.540283 l -1.29602,1.058829 c -0.466724,0.381102 -0.466724,0.996046 0,1.37715 l 5.2760607,4.307662 c 0.234609,0.191572 0.540263,0.287308 0.846441,0.286282 v 0.06098 c 0,-0.212521 0.03232,-0.448352 0.09302,-0.699169 0.01256,-0.05189 0.02628,-0.104477 0.04134,-0.157609 -0.01501,0.05296 -0.02882,0.105876 -0.04134,0.157609 -0.05501,0.22731 -0.08613,0.441726 -0.09147,0.638192 0.302376,-0.0013 0.604929,-0.09709 0.836625,-0.286282 l 5.2760617,-4.307662 c 0.466726,-0.381104 0.466726,-0.996048 0,-1.37715 L 13.863282,9.27435 V 5.7144313 2.3658644 c 0,-0.1108854 -0.0576,-0.1860124 -0.140041,-0.2268551 -0.0081,-0.00402 -0.01677,-0.00802 -0.02532,-0.011368 -1.49e-4,-5.84e-5 -3.67e-4,5.8e-5 -5.16e-4,0 -0.0087,-0.0034 -0.01726,-0.00659 -0.02636,-0.0093 -0.03637,-0.010834 -0.07581,-0.016092 -0.115753,-0.016019 -0.08388,1.521e-4 -0.170386,0.023734 -0.241841,0.071829 -0.01021,0.00687 -0.02044,0.014343 -0.02997,0.02222 L 11.445386,3.716662 9.0290443,5.7144335 v 0.00517 c -0.0016,-1.24e-5 -0.0036,-1.5e-6 -0.0052,0 v -0.00155 l 0.0052,-0.00362 -0.0052,-0.00413 v -0.00568 h -0.0067 L 6.6126883,3.7166703 h -5.16e-4 L 4.7756266,2.1963796 c -0.07225,-0.059735 -0.166081,-0.091373 -0.257341,-0.094566 z m 8.3590144,9.104691 c -0.03896,0.01836 -0.07779,0.0372 -0.11627,0.05633 0.03844,-0.01911 0.07735,-0.03798 0.11627,-0.05633 z m -0.674881,0.369996 c -0.01868,0.01175 -0.03726,0.02374 -0.05581,0.03566 0.01859,-0.01195 0.03708,-0.02388 0.05581,-0.03566 z m -5.7674937,0.411853 c 0.06593,0.05191 0.130554,0.104772 0.194299,0.158643 0.06375,0.05387 0.126582,0.108673 0.188099,0.164328 0.06152,0.05566 0.122134,0.112236 0.181381,0.169496 0.05925,0.05726 0.117214,0.114944 0.174146,0.173629 -0.05693,-0.05868 -0.114901,-0.11637 -0.174146,-0.173629 -0.05925,-0.05726 -0.119864,-0.11384 -0.181381,-0.169496 -0.06152,-0.05565 -0.124352,-0.110456 -0.188099,-0.164328 -0.06374,-0.05387 -0.128366,-0.106736 -0.194299,-0.158643 z m 5.1411877,0.03359 c -0.128879,0.10265 -0.253801,0.209044 -0.37413,0.318837 -0.06124,0.05588 -0.121387,0.112553 -0.180347,0.170012 -0.05896,0.05746 -0.116989,0.115801 -0.17363,0.174663 -0.04925,0.05119 -0.09722,0.102908 -0.144691,0.155026 0.04746,-0.0521 0.09544,-0.103856 0.144691,-0.155026 0.0567,-0.05892 0.114602,-0.117151 0.17363,-0.174663 0.05896,-0.05745 0.119109,-0.114148 0.180347,-0.170012 0.120363,-0.109802 0.24522,-0.216182 0.37413,-0.318837 z m -0.898636,0.84696 c -0.03843,0.04262 -0.07594,0.08552 -0.113169,0.128672 0.03724,-0.04316 0.07472,-0.08605 0.113169,-0.128672 z m -0.166911,0.191199 c -0.03159,0.03741 -0.06233,0.07491 -0.09302,0.112652 0.03065,-0.03769 0.06146,-0.07529 0.09302,-0.112652 z m -0.148825,0.180864 c -0.03371,0.04243 -0.06616,0.0854 -0.0987,0.128155 0.0326,-0.04282 0.06493,-0.08566 0.0987,-0.128155 z m -0.145208,0.189132 c -0.04217,0.05655 -0.08339,0.113571 -0.123505,0.170529 0.04016,-0.05702 0.08128,-0.113917 0.123505,-0.170529 z m -0.128156,0.177246 c -0.04417,0.06287 -0.08705,0.125948 -0.1286727,0.189133 -0.03423,0.05196 -0.06725,0.103993 -0.09973,0.156059 0.03251,-0.05211 0.06547,-0.104057 0.09973,-0.156059 0.04164,-0.0632 0.08448,-0.126255 0.1286727,-0.189133 z m -0.2604427,0.396351 c -0.02137,0.03488 -0.04196,0.0695 -0.06253,0.104384 0.02053,-0.0348 0.0412,-0.06958 0.06253,-0.104384 z m -0.118854,0.201534 c -0.02001,0.03517 -0.03921,0.07031 -0.05839,0.105418 0.01921,-0.03514 0.03836,-0.07021 0.05839,-0.105418 z m -0.09922,0.180347 c -0.02287,0.04311 -0.04455,0.08626 -0.06614,0.129189 0.02162,-0.04296 0.04325,-0.08605 0.06614,-0.129189 z m -1.100687,0.140041 c 0.0629,0.126067 0.120388,0.251157 0.172079,0.374646 -0.05169,-0.123489 -0.109176,-0.248579 -0.172079,-0.374646 z m 1.004571,0.04754 c -0.02561,0.05218 -0.04969,0.104273 -0.07338,0.15606 0.0237,-0.05179 0.04777,-0.103877 0.07338,-0.15606 z m -0.08423,0.179314 c -0.02595,0.05734 -0.05034,0.114345 -0.0739,0.171045 0.02358,-0.05674 0.04792,-0.113666 0.0739,-0.171045 z m -0.07958,0.183448 c -0.02329,0.05643 -0.04526,0.11281 -0.06614,0.168461 0.02094,-0.05581 0.04278,-0.111863 0.06614,-0.168461 z m -0.07286,0.186031 c -0.0193,0.05197 -0.0371,0.103351 -0.05426,0.154509 0.01714,-0.05109 0.03499,-0.102611 0.05426,-0.154509 z m -0.06459,0.184998 c -0.01514,0.04612 -0.02901,0.09159 -0.04237,0.13694 0.01335,-0.0453 0.02725,-0.09087 0.04237,-0.13694 z m -0.253212,0.476964 c 0.01109,0.05537 0.02093,0.110251 0.02894,0.163811 0.008,0.05356 0.01424,0.106044 0.01912,0.15761 -0.0049,-0.05157 -0.01111,-0.10405 -0.01912,-0.15761 -0.008,-0.05356 -0.01785,-0.108437 -0.02894,-0.163811 z" />
  </g>
  <circle
     cx="296.65"
     cy="5.7567"
     r="0"
     enable-background="new"
     fill="#d5d3cf"
     opacity=".8"
     stroke-width=".87152"
     id="circle50" />
  <circle
     cx="-15.774"
     cy="13.461"
     r="0"
     enable-background="new"
     fill="#d5d3cf"
     opacity=".8"
     stroke-width=".87152"
     id="circle64" />
  <path
     id="rect937"
     style="fill:url(#linearGradient1119);fill-opacity:1;stroke:none;stroke-width:0.870701"
     d="M 8.5344891,4.1977352 V 16.268614 C 8.4716379,14.462816 6.5376367,11.300804 3.5435367,10.214356 3.2712465,10.076314 3.0184704,10.014702 3.0184704,9.5236765 V 8.2364168 L 1.5373691,9.4465164 c -0.5332404,0.4354159 -0.5332404,1.1379006 0,1.5733176 l 6.027912,4.921319 c 0.2680475,0.218873 0.6175115,0.328635 0.9673259,0.327461 v 0 L 8.540147,4.1977369 c -0.00186,-1.43e-5 -0.00376,-1.8e-6 -0.00564,0 z m 5.5216649,4.0556192 v 1.2910231 c 0,0.5108765 -0.240024,0.5602175 -0.572117,0.6925615 -2.986051,1.101916 -4.9326664,4.272433 -4.9495479,6.031675 0.345467,-0.0015 0.6913174,-0.111304 0.9560355,-0.327461 l 6.0279084,-4.921319 c 0.533243,-0.435417 0.533243,-1.1379017 0,-1.5733176 z"
     sodipodi:nodetypes="cccscccccccsccscccccc" />
  <path
     id="path27871"
     style="fill:url(#linearGradient27875);fill-opacity:1;stroke:none;stroke-width:0.963563"
     d="m 8.5328548,16.236867 v 0.01099 0.09065 c 0,-0.02677 2.33e-4,-0.0539 0.00109,-0.0813 1.485e-4,0.0038 4.219e-4,0.0077 5.625e-4,0.01154 1.063e-4,-0.01026 -1.052e-4,-0.02051 0,-0.03076 C 9.8036264,3.0372726 10.366255,5.2112697 8.540002,4.1976627 c 3.2e-6,-0.00183 -3.3e-6,-0.00366 0,-0.00549 -0.00731,0.00216 0.00492,0.00399 -0.013184,-0.011538 -5.1647577,2.2527275 0.2696045,9.9146843 0.00604,12.0562483 z"
     sodipodi:nodetypes="ccccccccccc" />
  <path
     id="rect2360"
     style="fill:url(#linearGradient25126);fill-opacity:1;stroke:none;stroke-width:0.963562"
     d="m 3.3421667,0.06495589 c -0.1716383,0.00922 -0.3236963,0.108547 -0.3236963,0.30111326 V 4.1807978 4.1920859 8.236413 9.5236727 c 0,0.4910263 0.2527761,0.5526373 0.5250663,0.6906793 2.9941,1.086446 4.9280992,4.248465 4.9909524,6.054262 0.04172,-4.023531 -0.0014,-8.0478236 0.00565,-12.0765279 -0.00731,0.00217 0.00492,0.00421 -0.013184,-0.011311 L 5.7793025,1.9092664 3.6809196,0.17221943 C 3.5865866,0.09422198 3.4596039,0.05863389 3.3421667,0.06494803 Z"
     sodipodi:nodetypes="cscccscccccccc" />
  <path
     id="path4078"
     style="opacity:0.54624211;fill:#eb3b75;fill-opacity:1;stroke-width:2.38542"
     inkscape:transform-center-x="-0.3515605"
     d="M 3.3421667,0.06495589 C 3.1705284,0.07418247 3.0184704,0.1735031 3.0184704,0.36606915 V 4.1920896 8.2364168 L 7.5652811,4.5251961 C 7.8319016,4.3074877 8.1790067,4.1977352 8.5269617,4.1977352 c 0.00186,0 0.00376,4.8e-6 0.00564,0 l 0.00754,-0.00564 L 5.7793015,1.9092762 3.6809188,0.17222928 C 3.5865855,0.09423193 3.459603,0.05864373 3.3421658,0.06495775 Z" />
  <path
     id="path3329"
     style="fill:url(#linearGradient11843);fill-opacity:1;stroke:none;stroke-width:0.963562"
     d="m 13.711755,0.06495589 c -0.109523,1.9859e-4 -0.223447,0.03527434 -0.310523,0.10727197 L 11.300966,1.9092743 8.5401443,4.1977369 8.5326061,16.247915 v 0.09033 c 0,-1.783248 1.9265129,-4.985048 4.9514299,-6.101307 0.332094,-0.132354 0.572118,-0.18169 0.572118,-0.6925666 v -1.291022 l 0.0076,0.00564 V 4.1920896 0.36606915 c 0,-0.20270166 -0.169396,-0.30144568 -0.351924,-0.30111326 z"
     sodipodi:nodetypes="sccccccscccsss" />
  <path
     id="path7855"
     style="fill:#f46a22;fill-opacity:1;stroke-width:2.38542;opacity:0.53612941"
     inkscape:transform-center-x="0.35155267"
     d="m 13.711755,0.06495589 c -0.109523,1.9859e-4 -0.223447,0.03527434 -0.310523,0.10727197 l -2.100266,1.73704694 -2.7608305,2.2828155 0.00754,0.00564 c 0.3410943,0.00419 0.6814736,0.1140264 0.9428614,0.3274608 L 14.06369,8.259002 V 4.1920896 0.36606915 c 0,-0.20270166 -0.169398,-0.30144568 -0.351927,-0.30111326 z"
     inkscape:transform-center-y="1.2929445e-06" />
</svg>
