<?xml version="1.0" encoding="UTF-8" standalone="no"?>
<svg
   width="64"
   height="64"
   viewBox="0 0 16.933333 16.933334"
   version="1.1"
   id="svg951"
   inkscape:version="1.1.2 (0a00cf5339, 2022-02-04)"
   sodipodi:docname="97C1_wordpad.0.svg"
   xmlns:inkscape="http://www.inkscape.org/namespaces/inkscape"
   xmlns:sodipodi="http://sodipodi.sourceforge.net/DTD/sodipodi-0.dtd"
   xmlns:xlink="http://www.w3.org/1999/xlink"
   xmlns="http://www.w3.org/2000/svg"
   xmlns:svg="http://www.w3.org/2000/svg"
   xmlns:rdf="http://www.w3.org/1999/02/22-rdf-syntax-ns#"
   xmlns:cc="http://creativecommons.org/ns#"
   xmlns:dc="http://purl.org/dc/elements/1.1/">
  <defs
     id="defs945">
    <linearGradient
       inkscape:collect="always"
       id="linearGradient6504">
      <stop
         style="stop-color:#9ac8fb;stop-opacity:1"
         offset="0"
         id="stop6500" />
      <stop
         style="stop-color:#9fcbfb;stop-opacity:0.98431373;"
         offset="0.10480236"
         id="stop8656" />
      <stop
         style="stop-color:#a2cdfb;stop-opacity:0.97254902;"
         offset="0.22390105"
         id="stop8786" />
      <stop
         style="stop-color:#a7cffb;stop-opacity:0.95686275;"
         offset="0.35630071"
         id="stop8788" />
      <stop
         style="stop-color:#afd3fb;stop-opacity:0.9372549;"
         offset="0.47632164"
         id="stop8918" />
      <stop
         style="stop-color:#ffffff;stop-opacity:0.75684756"
         offset="1"
         id="stop6502" />
    </linearGradient>
    <linearGradient
       inkscape:collect="always"
       id="linearGradient1769">
      <stop
         style="stop-color:#ececec;stop-opacity:1;"
         offset="0"
         id="stop1757" />
      <stop
         style="stop-color:#ececec;stop-opacity:0.95686275"
         offset="0.11906077"
         id="stop1759" />
      <stop
         style="stop-color:#ececec;stop-opacity:0.64705884"
         offset="0.47415271"
         id="stop1761" />
      <stop
         style="stop-color:#ececec;stop-opacity:0.46666667"
         offset="0.62723237"
         id="stop1763" />
      <stop
         style="stop-color:#ececec;stop-opacity:0.22352941"
         offset="0.77123064"
         id="stop1765" />
      <stop
         style="stop-color:#ececec;stop-opacity:0;"
         offset="1"
         id="stop1767" />
    </linearGradient>
    <linearGradient
       inkscape:collect="always"
       id="linearGradient1184">
      <stop
         style="stop-color:#ececec;stop-opacity:1;"
         offset="0"
         id="stop1172" />
      <stop
         style="stop-color:#ececec;stop-opacity:0.95686275;"
         offset="0.1209482"
         id="stop1174" />
      <stop
         style="stop-color:#ececec;stop-opacity:0.64705882;"
         offset="0.477597"
         id="stop1176" />
      <stop
         style="stop-color:#ececec;stop-opacity:0.46666667;"
         offset="0.62986279"
         id="stop1178" />
      <stop
         style="stop-color:#ececec;stop-opacity:0.22352941;"
         offset="0.77454287"
         id="stop1186" />
      <stop
         style="stop-color:#ececec;stop-opacity:0.09803922;"
         offset="0.87788165"
         id="stop1318" />
      <stop
         style="stop-color:#ececec;stop-opacity:0;"
         offset="1"
         id="stop1182" />
    </linearGradient>
    <clipPath
       clipPathUnits="userSpaceOnUse"
       id="clipPath1041">
      <rect
         style="fill:#0254ff;fill-opacity:0.650205;stroke-width:1.32292;stroke-linecap:round;stroke-linejoin:round"
         id="rect1043"
         width="10.288502"
         height="14.650601"
         x="21.092087"
         y="1.0028646"
         rx="1.6305863"
         ry="1.6305863" />
    </clipPath>
    <linearGradient
       inkscape:collect="always"
       xlink:href="#linearGradient1184"
       id="linearGradient1103"
       gradientUnits="userSpaceOnUse"
       x1="11.306279"
       y1="34.900219"
       x2="2.7841265"
       y2="34.900219" />
    <linearGradient
       inkscape:collect="always"
       xlink:href="#linearGradient1184"
       id="linearGradient1189"
       gradientUnits="userSpaceOnUse"
       x1="11.309896"
       y1="34.900219"
       x2="2.8944769"
       y2="34.900219"
       gradientTransform="matrix(0,-0.29257168,0.26458334,0,1.5394247,16.033215)" />
    <linearGradient
       inkscape:collect="always"
       xlink:href="#linearGradient1769"
       id="linearGradient1201"
       gradientUnits="userSpaceOnUse"
       x1="11.559881"
       y1="34.900219"
       x2="2.7521574"
       y2="34.900219"
       gradientTransform="matrix(-0.99999999,0,0,0.99999999,64.247021,0)" />
    <linearGradient
       inkscape:collect="always"
       xlink:href="#linearGradient909"
       id="linearGradient911"
       x1="11.152624"
       y1="7.5552707"
       x2="11.152624"
       y2="10.044958"
       gradientUnits="userSpaceOnUse"
       gradientTransform="matrix(3.7795276,0,0,3.7795276,0.1357115,0.17188913)" />
    <linearGradient
       inkscape:collect="always"
       id="linearGradient909">
      <stop
         style="stop-color:#ececec;stop-opacity:1;"
         offset="0"
         id="stop905" />
      <stop
         style="stop-color:#bababa;stop-opacity:0.99300802"
         offset="1"
         id="stop907" />
    </linearGradient>
    <clipPath
       id="a">
      <rect
         height="417"
         ry="60.628601"
         width="416"
         x="51"
         y="54"
         id="rect2" />
    </clipPath>
    <radialGradient
       inkscape:collect="always"
       xlink:href="#linearGradient1769"
       id="radialGradient1755"
       gradientUnits="userSpaceOnUse"
       gradientTransform="matrix(-1.8452989,0.00221522,-0.00259044,-2.1579207,3.7865455,44.821291)"
       cx="0.40893546"
       cy="14.993001"
       fx="0.40893546"
       fy="14.993001"
       r="1.2291398" />
    <radialGradient
       inkscape:collect="always"
       xlink:href="#linearGradient1769"
       id="radialGradient3596"
       gradientUnits="userSpaceOnUse"
       gradientTransform="matrix(-1.8337866,0,7.1630966e-8,-1.9482307,-13.258032,41.938711)"
       cx="0.40893546"
       cy="14.993001"
       fx="0.40893546"
       fy="14.993001"
       r="1.2291398" />
    <linearGradient
       inkscape:collect="always"
       xlink:href="#linearGradient6504"
       id="linearGradient8398"
       gradientUnits="userSpaceOnUse"
       x1="8.8465261"
       y1="9.494421"
       x2="8.8465261"
       y2="7.5669513" />
  </defs>
  <sodipodi:namedview
     id="base"
     pagecolor="#585858"
     bordercolor="#666666"
     borderopacity="1.0"
     inkscape:pageopacity="0"
     inkscape:pageshadow="2"
     inkscape:zoom="16"
     inkscape:cx="43.25"
     inkscape:cy="34.96875"
     inkscape:document-units="mm"
     inkscape:current-layer="layer1"
     inkscape:document-rotation="0"
     showgrid="false"
     units="px"
     inkscape:window-width="1920"
     inkscape:window-height="1030"
     inkscape:window-x="0"
     inkscape:window-y="24"
     inkscape:window-maximized="1"
     showguides="true"
     inkscape:guide-bbox="true"
     inkscape:pagecheckerboard="0">
    <sodipodi:guide
       position="2.991453,7.5682242"
       orientation="1,0"
       id="guide1068" />
    <sodipodi:guide
       position="2.7303252,7.6958306"
       orientation="1,0"
       id="guide1670" />
    <sodipodi:guide
       position="1.9176588,7.4093511"
       orientation="1,0"
       id="guide2770" />
    <sodipodi:guide
       position="1.5704542,7.2178799"
       orientation="1,0"
       id="guide3227" />
    <sodipodi:guide
       position="1.2438473,7.6987539"
       orientation="1,0"
       id="guide3267" />
  </sodipodi:namedview>
  <metadata
     id="metadata948">
    <rdf:RDF>
      <cc:Work
         rdf:about="">
        <dc:format>image/svg+xml</dc:format>
        <dc:type
           rdf:resource="http://purl.org/dc/dcmitype/StillImage" />
      </cc:Work>
    </rdf:RDF>
  </metadata>
  <g
     inkscape:label="Capa 1"
     inkscape:groupmode="layer"
     id="layer1">
    <g
       id="g1314"
       transform="translate(-29.630937,14.274036)">
      <path
         id="rect10"
         style="fill:url(#linearGradient911);fill-opacity:1;stroke-width:0.129544"
         d="M 11.4375 4.84375 C 8.512761 4.84375 6.1582031 7.1983079 6.1582031 10.123047 L 6.1582031 33.197266 L 58.359375 33.197266 L 58.359375 10.123047 C 58.359375 7.1983079 56.004817 4.84375 53.080078 4.84375 L 11.4375 4.84375 z "
         transform="matrix(0.26458333,0,0,0.26458333,29.630937,-14.274036)" />
      <g
         fill="#96a1ae"
         fill-opacity="0.536946"
         id="g40"
         transform="matrix(0.03427525,0,0,0.03427525,29.649538,-14.911788)">
        <rect
           height="86.267029"
           rx="3.272078"
           width="197.9899"
           x="228.69403"
           y="111.69783"
           id="rect26" />
        <rect
           height="15.556366"
           rx="3.272078"
           width="113.1371"
           x="228.69403"
           y="216.34964"
           id="rect28" />
        <rect
           height="15.556366"
           rx="3.272078"
           width="113.1371"
           x="75.958969"
           y="118.76891"
           id="rect30" />
        <rect
           height="15.556366"
           rx="3.272078"
           width="113.1371"
           x="75.958969"
           y="151.76724"
           id="rect32" />
        <rect
           height="15.556366"
           rx="3.272078"
           width="113.1371"
           x="75.958969"
           y="184.76555"
           id="rect34" />
        <rect
           height="15.556366"
           rx="3.272078"
           width="113.1371"
           x="75.958969"
           y="217.76387"
           id="rect36" />
        <rect
           height="15.556366"
           rx="3.272078"
           width="113.1371"
           x="75.958969"
           y="250.76219"
           id="rect38" />
      </g>
    </g>
    <g
       id="g1323">
      <path
         id="rect1060"
         style="fill:url(#linearGradient1103);fill-opacity:1;stroke-width:0.129544"
         d="M 4.9902344 33.197266 C 3.9128303 33.197266 2.97482 33.757211 2.4375 34.599609 L 2.4179688 47.103516 C 2.4179688 47.103516 9.5671092 47.125 11.3125 47.125 L 11.3125 48.082031 L 52.933594 48.970703 L 52.943359 47.125 L 52.943359 33.197266 L 4.9902344 33.197266 z "
         transform="scale(0.26458333)" />
      <path
         id="path1187"
         style="fill:url(#linearGradient1189);fill-opacity:1;stroke-width:0.0360425"
         d="m 2.9930989,12.726353 v 2.58286 l 11.0147391,0.01658 9.2e-5,-2.602288 -11.0148311,-0.0034 z"
         sodipodi:nodetypes="cccccc" />
      <rect
         style="fill:url(#radialGradient1755);fill-opacity:1;stroke-width:1.32292;stroke-linecap:round;stroke-linejoin:round;opacity:1"
         id="rect1191"
         width="2.4571476"
         height="2.5961235"
         x="0.53595114"
         y="12.463107"
         rx="0"
         ry="0" />
      <path
         id="path1199"
         style="fill:url(#linearGradient1201);fill-opacity:1;stroke-width:0.129544"
         d="M 11.304688,33.197266 V 47.125 h 0.0078 c 4.999776,0.612309 41.621094,-1.730667 41.621094,0.974389 1.745389,0 9.003779,0.0029 9.003779,0.0029 L 61.810536,34.248053 c -0.55495,-0.639774 -1.36591,-1.050781 -2.283203,-1.050781 z"
         transform="scale(0.26458333)"
         sodipodi:nodetypes="ccccccsc" />
      <rect
         style="opacity:1;fill:url(#radialGradient3596);fill-opacity:1;stroke-width:1.32292;stroke-linecap:round;stroke-linejoin:round"
         id="rect1217"
         width="2.4571476"
         height="2.5961235"
         x="-16.465078"
         y="12.723505"
         rx="0"
         ry="0"
         transform="scale(-1,1)" />
    </g>
    <path
       id="rect903"
       style="fill:#005fc8;fill-opacity:0.70663;stroke-width:5.00001;stroke-linecap:round;stroke-linejoin:round"
       d="M 4.9902344 33.197266 C 3.3109369 33.197266 1.9589844 34.549218 1.9589844 36.228516 L 1.9589844 58.166016 C 1.9589844 59.845313 3.3109369 61.197266 4.9902344 61.197266 L 59.527344 61.197266 C 61.206641 61.197266 62.558594 59.845313 62.558594 58.166016 L 62.558594 36.228516 C 62.558594 34.549218 61.206641 33.197266 59.527344 33.197266 L 46.767578 33.197266 A 15.90921 15.90921 0 0 1 48.214844 40.498047 L 48.210938 40.613281 A 15.90921 15.90921 0 0 1 31.587891 55.746094 A 15.90921 15.90921 0 0 1 16.425781 39.150391 A 15.90921 15.90921 0 0 1 17.876953 33.197266 L 4.9902344 33.197266 z "
       transform="scale(0.26458333)" />
    <path
       d="M 12.755657,10.745692 A 4.2093119,4.2093119 0 0 1 8.3577005,14.749428 4.2093119,4.2093119 0 0 1 4.3459439,10.358787 4.2093119,4.2093119 0 0 1 8.7292535,6.3390212 4.2093119,4.2093119 0 0 1 12.757015,10.714986"
       id="path14"
       style="stroke-width:0.561241;fill:url(#linearGradient8398);fill-opacity:1" />
    <path
       id="path22"
       style="fill:#fefeff;fill-opacity:1;stroke-width:0.46232"
       d="m 6.7939767,8.5471732 0.4550965,5.2859838 h 0.9679829 l 0.241997,-1.806842 c 0.03558,-0.341511 0.06343,-0.683141 0.07765,-1.010424 h 0.0289 c 0.01423,0.327283 0.03497,0.668913 0.07765,1.010424 l 0.241997,1.806842 h 0.995976 L 10.308332,8.5471732 H 9.4974641 l -0.148989,2.9599338 c -0.02134,0.434004 -0.02178,0.768176 -0.0289,1.223524 h -0.0289 c -0.05692,-0.455348 -0.09929,-0.796635 -0.156212,-1.223524 L 8.9213601,9.898919 h -0.640206 l -0.234772,1.608188 c -0.06403,0.434004 -0.100088,0.782407 -0.149893,1.223524 h -0.027991 c -0.014233,-0.441117 -0.021999,-0.78952 -0.043345,-1.223524 L 7.6834016,8.5471732 Z" />
  </g>
</svg>
