<?xml version="1.0" encoding="UTF-8" standalone="no"?>
<svg
   width="64"
   height="64"
   version="1.1"
   viewBox="0 0 16.933 16.933"
   id="svg14"
   sodipodi:docname="A35F_hh.0.svg"
   inkscape:version="1.1.2 (0a00cf5339, 2022-02-04)"
   xmlns:inkscape="http://www.inkscape.org/namespaces/inkscape"
   xmlns:sodipodi="http://sodipodi.sourceforge.net/DTD/sodipodi-0.dtd"
   xmlns:xlink="http://www.w3.org/1999/xlink"
   xmlns="http://www.w3.org/2000/svg"
   xmlns:svg="http://www.w3.org/2000/svg"
   xmlns:rdf="http://www.w3.org/1999/02/22-rdf-syntax-ns#"
   xmlns:cc="http://creativecommons.org/ns#"
   xmlns:dc="http://purl.org/dc/elements/1.1/">
  <metadata
     id="metadata20">
    <rdf:RDF>
      <cc:Work
         rdf:about="">
        <dc:format>image/svg+xml</dc:format>
        <dc:type
           rdf:resource="http://purl.org/dc/dcmitype/StillImage" />
      </cc:Work>
    </rdf:RDF>
  </metadata>
  <defs
     id="defs18">
    <linearGradient
       inkscape:collect="always"
       id="linearGradient7688">
      <stop
         style="stop-color:#21bc86;stop-opacity:1"
         offset="0"
         id="stop7684" />
      <stop
         style="stop-color:#21bc44;stop-opacity:1"
         offset="1"
         id="stop7686" />
    </linearGradient>
    <linearGradient
       inkscape:collect="always"
       id="linearGradient5740">
      <stop
         style="stop-color:#ffffff;stop-opacity:1;"
         offset="0"
         id="stop5736" />
      <stop
         style="stop-color:#ffffff;stop-opacity:0;"
         offset="1"
         id="stop5738" />
    </linearGradient>
    <linearGradient
       inkscape:collect="always"
       id="linearGradient5595">
      <stop
         style="stop-color:#fdfefd;stop-opacity:1;"
         offset="0"
         id="stop5591" />
      <stop
         style="stop-color:#fdfefd;stop-opacity:0;"
         offset="1"
         id="stop5593" />
    </linearGradient>
    <linearGradient
       inkscape:collect="always"
       id="linearGradient2766">
      <stop
         style="stop-color:#ccefd4;stop-opacity:1"
         offset="0"
         id="stop2762" />
      <stop
         style="stop-color:#ffffff;stop-opacity:0.66621995"
         offset="1"
         id="stop2764" />
    </linearGradient>
    <linearGradient
       inkscape:collect="always"
       id="linearGradient941">
      <stop
         style="stop-color:#ff296a;stop-opacity:1;"
         offset="0"
         id="stop937" />
      <stop
         style="stop-color:#ff3756;stop-opacity:1"
         offset="1"
         id="stop939" />
    </linearGradient>
    <clipPath
       clipPathUnits="userSpaceOnUse"
       id="clipPath1166">
      <circle
         style="opacity:0.549378;fill:url(#radialGradient1170);fill-opacity:1;stroke-width:1"
         id="circle1168"
         cx="16.60276"
         cy="47.223671"
         r="15.934281" />
    </clipPath>
    <radialGradient
       inkscape:collect="always"
       xlink:href="#linearGradient941"
       id="radialGradient1170"
       gradientUnits="userSpaceOnUse"
       gradientTransform="matrix(8.084336,0,0,7.4867944,-17.143765,-32.996318)"
       cx="3.9825375"
       cy="8.9006214"
       fx="3.9825375"
       fy="8.9006214"
       r="4.2158623" />
    <clipPath
       clipPathUnits="userSpaceOnUse"
       id="clipPath977-3">
      <path
         id="path979-6"
         style="fill:url(#linearGradient981);fill-opacity:1;stroke:none;stroke-width:3.77953;stroke-linecap:round;stroke-linejoin:round;stroke-opacity:1"
         d="m 498.58672,331.99279 c -26.19823,0 -47.28906,21.09084 -47.28906,47.28906 v 42.5892 70.06055 23.03125 c 0,13.4388 10.81901,24.25782 24.25781,24.25782 h 23.03125 100.57422 18.61328 c 26.19823,0 47.28906,-21.09084 47.28906,-47.28907 V 379.28185 c 0,-26.19823 -21.09083,-47.28906 -47.28906,-47.28906 z"
         sodipodi:nodetypes="ssccssccsssss" />
    </clipPath>
    <linearGradient
       inkscape:collect="always"
       xlink:href="#linearGradient2766"
       id="linearGradient2768"
       x1="19.960424"
       y1="50.734123"
       x2="17.414476"
       y2="48.188175"
       gradientUnits="userSpaceOnUse" />
    <radialGradient
       inkscape:collect="always"
       xlink:href="#linearGradient5595"
       id="radialGradient5597"
       cx="39.449768"
       cy="46.852783"
       fx="39.449768"
       fy="46.852783"
       r="18.413086"
       gradientTransform="matrix(0.39989089,0,0,0.26439468,12.942783,36.288905)"
       gradientUnits="userSpaceOnUse" />
    <radialGradient
       inkscape:collect="always"
       xlink:href="#linearGradient5740"
       id="radialGradient5742"
       cx="32.954315"
       cy="35.579018"
       fx="32.954315"
       fy="35.579018"
       r="24.433594"
       gradientTransform="matrix(1,0,0,0.6348921,0,16.482268)"
       gradientUnits="userSpaceOnUse" />
    <radialGradient
       inkscape:collect="always"
       xlink:href="#linearGradient5740"
       id="radialGradient5841"
       gradientUnits="userSpaceOnUse"
       gradientTransform="matrix(0.99999998,0,0,0.63489209,0,16.482268)"
       cx="30.289949"
       cy="45.307602"
       fx="30.289949"
       fy="45.307602"
       r="24.433594" />
    <radialGradient
       inkscape:collect="always"
       xlink:href="#linearGradient5740"
       id="radialGradient5845"
       gradientUnits="userSpaceOnUse"
       gradientTransform="matrix(1,0,0,0.6348921,0,16.482268)"
       cx="34.71563"
       cy="53.4916"
       fx="34.71563"
       fy="53.4916"
       r="24.433594" />
    <radialGradient
       inkscape:collect="always"
       xlink:href="#linearGradient7688"
       id="radialGradient7690"
       cx="8.3466091"
       cy="0.93119389"
       fx="8.3466091"
       fy="0.93119389"
       r="7.5121457"
       gradientUnits="userSpaceOnUse"
       gradientTransform="matrix(12.205274,0,0,1.6686534,-93.52604,-0.62264564)" />
  </defs>
  <sodipodi:namedview
     pagecolor="#ffffff"
     bordercolor="#666666"
     borderopacity="1"
     objecttolerance="10"
     gridtolerance="10"
     guidetolerance="10"
     inkscape:pageopacity="0"
     inkscape:pageshadow="2"
     inkscape:window-width="1920"
     inkscape:window-height="1028"
     id="namedview16"
     showgrid="false"
     inkscape:zoom="1.4142135"
     inkscape:cx="-7.4246215"
     inkscape:cy="-97.227187"
     inkscape:window-x="0"
     inkscape:window-y="24"
     inkscape:window-maximized="1"
     inkscape:current-layer="svg14"
     inkscape:document-rotation="0"
     showguides="true"
     inkscape:guide-bbox="true"
     inkscape:pagecheckerboard="0" />
  <path
     id="path5843"
     style="opacity:1;fill:url(#radialGradient5845);fill-opacity:1;stroke:none;stroke-width:2.5;stroke-linecap:round;stroke-linejoin:bevel;stroke-opacity:0.987187"
     d="M 43.623047 29.630859 C 42.560934 29.630859 41.499393 30.037717 40.685547 30.851562 L 11.072266 60.464844 C 11.697325 60.588327 12.34351 60.65625 13.005859 60.65625 L 50.087891 60.65625 C 55.545352 60.65625 59.939453 56.262149 59.939453 50.804688 L 59.939453 44.230469 L 46.560547 30.851562 C 45.746701 30.037717 44.68516 29.630859 43.623047 29.630859 z "
     transform="scale(0.26457812)" />
  <path
     id="rect925"
     style="fill:url(#radialGradient7690);fill-opacity:1;stroke-width:0.289287;opacity:0.92107045"
     d="m 3.4408739,1.0238182 c -1.4439252,0 -2.60641036,1.1624856 -2.60641036,2.6064102 v 9.8114706 c 0,1.443924 1.16248516,2.60641 2.60641036,2.60641 h 9.8114701 c 1.443925,0 2.606411,-1.162485 2.606411,-2.60641 V 3.6302284 c 0,-1.4439246 -1.162486,-2.6064102 -2.606411,-2.6064102 z"
     sodipodi:nodetypes="sccccccss" />
  <path
     d="m 9.9280569,11.939281 c 0.04221,0 0.079005,0.03366 0.082196,0.07517 l 0.143311,1.503405 c 0.0032,0.04151 -0.03091,0.07517 -0.07617,0.07517 H 6.6149479 c -0.045259,0 -0.079362,-0.03366 -0.07617,-0.07517 l 0.1499266,-1.503405 c 0.00319,-0.04151 0.039995,-0.07517 0.0822,-0.07517 z M 9.6126404,9.6763151 9.7682214,11.667403 c 2.252e-4,0.003 3.459e-4,0.0059 3.459e-4,0.0088 0,0.05708 -0.04242,0.104259 -0.097456,0.111726 l -0.015304,9.58e-4 H 7.0442129 c -0.00325,0 -0.00651,-1.41e-4 -0.00975,-4.2e-4 -0.056869,-0.0049 -0.1002008,-0.05128 -0.1028795,-0.106749 l 2.978e-4,-0.01534 0.031103,-0.358283 0.00214,3.15e-4 C 6.9967112,10.805516 7.2806195,10.402388 7.809236,10.117468 L 7.85951,10.091108 C 8.3238233,9.8541853 8.6027689,9.7911808 9.1668967,9.7392907 c 0.1879998,-0.01729 0.2823677,-0.028814 0.3924557,-0.051317 0.017993,-0.00365 0.03574,-0.00758 0.053286,-0.011702 z M 9.4543473,7.6500044 9.6007464,9.523195 C 9.5771284,9.529165 9.5530914,9.534586 9.5284914,9.539612 9.4256009,9.5606452 9.3353572,9.5716608 9.1527795,9.5884527 8.5708841,9.6419799 8.2746969,9.7088749 7.7895665,9.9563999 7.4398027,10.134858 7.1834075,10.358455 7.022088,10.626049 L 7.1878039,8.7174334 C 7.3226629,8.4474971 7.555024,8.2237887 7.8867714,8.0447246 8.3247826,7.8083027 8.5875624,7.7455137 9.1199238,7.693711 9.2763775,7.6784886 9.3644071,7.6677223 9.4543473,7.6500044 Z M 8.4246512,8.0304263 H 8.2743107 c -0.036903,0 -0.067595,0.026594 -0.073959,0.061656 l -0.00122,0.013511 v 0.526192 c 0,0.036906 0.026591,0.067592 0.061658,0.073956 l 0.013512,0.00125 h 0.1503424 c 0.036903,0 0.067595,-0.026594 0.073958,-0.061656 l 0.00121,-0.013511 V 8.1056287 c 0,-0.041514 -0.033655,-0.075168 -0.07517,-0.075168 z M 9.2975748,6.9780424 c 0.053516,0 0.098844,0.037426 0.1100883,0.088324 l 0.00232,0.015649 0.032397,0.4157634 C 9.3521437,7.5164593 9.2672387,7.5271272 9.1049967,7.5429111 8.5540464,7.5965191 8.2731659,7.6636369 7.8136864,7.9116468 7.5638022,8.046524 7.364348,8.2070325 7.2159556,8.3926401 l 0.113961,-1.3115934 c 0.0046,-0.052977 0.045332,-0.094759 0.096646,-0.1019187 l 0.015687,-0.00109 z M 9.4770351,6.5270207 c 0.041515,0 0.07517,0.033655 0.07517,0.07517 v 0.1503404 c 0,0.041515 -0.033655,0.075171 -0.07517,0.075171 H 7.2219268 c -0.041515,0 -0.07517,-0.033655 -0.07517,-0.075171 V 6.602191 c 0,-0.041515 0.033655,-0.07517 0.07517,-0.07517 z M 7.6729485,5.9256584 c 0.041515,0 0.07517,0.033655 0.07517,0.07517 v 0.3006811 c 0,0.041515 -0.033655,0.075171 -0.07517,0.075171 H 7.3722673 c -0.041515,0 -0.07517,-0.033655 -0.07517,-0.075171 V 6.0008288 c 0,-0.041515 0.033655,-0.07517 0.07517,-0.07517 z m 1.6537462,0 c 0.041515,0 0.07517,0.033655 0.07517,0.07517 v 0.3006811 c 0,0.041515 -0.033655,0.075171 -0.07517,0.075171 H 9.0260135 c -0.041515,0 -0.07517,-0.033655 -0.07517,-0.075171 V 6.0008288 c 0,-0.041515 0.033655,-0.07517 0.07517,-0.07517 z m -0.6013623,0 c 0.041515,0 0.07517,0.033655 0.07517,0.07517 v 0.3006811 c 0,0.041515 -0.033655,0.075171 -0.07517,0.075171 H 7.9736296 c -0.041515,0 -0.07517,-0.033655 -0.07517,-0.075171 V 6.0008288 c 0,-0.041515 0.033655,-0.07517 0.07517,-0.07517 z M 9.4770351,5.4746369 c 0.041515,0 0.07517,0.033655 0.07517,0.07517 v 0.1503405 c 0,0.041515 -0.033655,0.07517 -0.07517,0.07517 H 7.2219268 c -0.041515,0 -0.07517,-0.033655 -0.07517,-0.07517 V 5.5498067 c 0,-0.041515 0.033655,-0.07517 0.07517,-0.07517 z M 8.3681284,4.7335896 9.340424,5.2891871 c 0.00901,0.00516 0.012141,0.016629 0.00699,0.02564 -0.00335,0.00586 -0.00957,0.00947 -0.016316,0.00947 H 7.3678618 c -0.010379,0 -0.018792,-0.00841 -0.018792,-0.018792 0,-0.00675 0.00362,-0.01297 0.00947,-0.016317 l 0.972295,-0.5555975 c 0.011555,-0.00661 0.02574,-0.00661 0.037295,0 z M 8.3494809,4.1967421 c 0.1245462,0 0.225511,0.1009646 0.225511,0.2255108 0,0.1245462 -0.1009648,0.2255108 -0.225511,0.2255108 -0.1245461,0 -0.2255108,-0.1009646 -0.2255108,-0.2255108 0,-0.1245462 0.1009647,-0.2255108 0.2255108,-0.2255108 z"
     id="path70"
     style="fill:#ffffff;fill-opacity:0.97866297;stroke-width:0.150341" />
  <path
     id="path5847"
     style="opacity:1;fill:#b9eac4;fill-opacity:0.97254902;stroke:none;stroke-width:2.5;stroke-linecap:round;stroke-linejoin:bevel;stroke-opacity:0.987187"
     d="M 43.623047 29.630859 C 42.560934 29.630859 41.499393 30.037717 40.685547 30.851562 L 11.072266 60.464844 C 11.697325 60.588327 12.34351 60.65625 13.005859 60.65625 L 50.087891 60.65625 C 55.545352 60.65625 59.939453 56.262149 59.939453 50.804688 L 59.939453 44.230469 L 46.560547 30.851562 C 45.746701 30.037717 44.68516 29.630859 43.623047 29.630859 z "
     transform="scale(0.26457812)" />
  <path
     id="rect963"
     style="opacity:1;fill:url(#linearGradient2768);fill-opacity:1;stroke:none;stroke-width:2.5;stroke-linecap:round;stroke-linejoin:bevel;stroke-opacity:0.987187"
     d="M 16.849609 38.007812 C 15.787497 38.007812 14.725955 38.41467 13.912109 39.228516 L 3.1542969 49.988281 L 3.1542969 50.804688 C 3.1542969 56.262145 7.5483969 60.65625 13.005859 60.65625 L 39.980469 60.65625 C 39.869919 59.771794 39.474874 58.916281 38.792969 58.234375 L 19.787109 39.228516 C 18.973264 38.41467 17.911722 38.007812 16.849609 38.007812 z "
     transform="scale(0.26457812)" />
  <path
     fill="#ffffff"
     d="M 15.866509,5.0987853 V 7.0532126 L 9.7002911,6.3132363 V 5.8387615 Z m -15.0340562,0 6.1617079,0.7393749 V 6.3138377 L 0.8324528,7.0532126 Z"
     opacity="0.3"
     id="path76"
     style="stroke-width:0.150341" />
  <path
     id="path4282"
     style="opacity:1;fill:url(#radialGradient5597);fill-opacity:1;stroke:none;stroke-width:2.5;stroke-linecap:round;stroke-linejoin:bevel;stroke-opacity:0.987187"
     d="M 16.849609 38.007812 C 15.787497 38.007812 14.725955 38.41467 13.912109 39.228516 L 3.1542969 49.988281 L 3.1542969 50.804688 C 3.1542969 56.262145 7.5483969 60.65625 13.005859 60.65625 L 39.980469 60.65625 C 39.869919 59.771794 39.474874 58.916281 38.792969 58.234375 L 19.787109 39.228516 C 18.973264 38.41467 17.911722 38.007812 16.849609 38.007812 z "
     transform="scale(0.26457812)" />
  <g
     id="g7501"
     style="opacity:0.88241604">
    <path
       id="rect1067"
       style="opacity:1;fill:url(#radialGradient5742);fill-opacity:1;stroke:none;stroke-width:2.5;stroke-linecap:round;stroke-linejoin:bevel;stroke-opacity:0.987187"
       d="M 43.623047 29.630859 C 42.560934 29.630859 41.499393 30.037717 40.685547 30.851562 L 11.072266 60.464844 C 11.697325 60.588327 12.34351 60.65625 13.005859 60.65625 L 50.087891 60.65625 C 55.545352 60.65625 59.939453 56.262149 59.939453 50.804688 L 59.939453 44.230469 L 46.560547 30.851562 C 45.746701 30.037717 44.68516 29.630859 43.623047 29.630859 z "
       transform="scale(0.26457812)" />
    <path
       id="path5801"
       style="opacity:1;fill:url(#radialGradient5841);fill-opacity:1;stroke:none;stroke-width:2.5;stroke-linecap:round;stroke-linejoin:bevel;stroke-opacity:0.987187"
       d="M 43.623047 29.630859 C 42.560934 29.630859 41.499393 30.037718 40.685547 30.851562 L 26.046875 45.488281 L 38.792969 58.234375 C 39.474874 58.916281 39.869919 59.771794 39.980469 60.65625 L 50.087891 60.65625 C 55.545352 60.65625 59.939453 56.262148 59.939453 50.804688 L 59.939453 44.230469 L 46.560547 30.851562 C 45.746701 30.037718 44.68516 29.630859 43.623047 29.630859 z "
       transform="scale(0.26457812)" />
  </g>
</svg>
