<?xml version="1.0" encoding="UTF-8" standalone="no"?>
<svg
   width="64"
   height="64"
   version="1.1"
   viewBox="0 0 64 64"
   id="svg80"
   sodipodi:docname="user-trash-full.svg"
   inkscape:version="1.1.2 (0a00cf5339, 2022-02-04)"
   xmlns:inkscape="http://www.inkscape.org/namespaces/inkscape"
   xmlns:sodipodi="http://sodipodi.sourceforge.net/DTD/sodipodi-0.dtd"
   xmlns:xlink="http://www.w3.org/1999/xlink"
   xmlns="http://www.w3.org/2000/svg"
   xmlns:svg="http://www.w3.org/2000/svg">
  <sodipodi:namedview
     id="namedview82"
     pagecolor="#ffffff"
     bordercolor="#666666"
     borderopacity="1.0"
     inkscape:pageshadow="2"
     inkscape:pageopacity="0.0"
     inkscape:pagecheckerboard="0"
     showgrid="false"
     inkscape:zoom="2.8284271"
     inkscape:cx="94.929085"
     inkscape:cy="24.925514"
     inkscape:window-width="1920"
     inkscape:window-height="1030"
     inkscape:window-x="0"
     inkscape:window-y="24"
     inkscape:window-maximized="1"
     inkscape:current-layer="svg80" />
  <defs
     id="defs66">
    <linearGradient
       inkscape:collect="always"
       id="linearGradient2686">
      <stop
         style="stop-color:#0c9ef0;stop-opacity:1"
         offset="0"
         id="stop2662" />
      <stop
         style="stop-color:#0c9ef0;stop-opacity:1"
         offset="0.55700213"
         id="stop2664" />
      <stop
         style="stop-color:#0c9ef0;stop-opacity:0.7764706"
         offset="0.64915591"
         id="stop2666" />
      <stop
         style="stop-color:#0c9ef0;stop-opacity:0.60000002"
         offset="0.71585816"
         id="stop2668" />
      <stop
         style="stop-color:#0c9ef0;stop-opacity:0.45490196"
         offset="0.75724065"
         id="stop2670" />
      <stop
         style="stop-color:#0c9ef0;stop-opacity:0.32156864"
         offset="0.79499805"
         id="stop2672" />
      <stop
         style="stop-color:#0c9ef0;stop-opacity:0.25098041"
         offset="0.82269931"
         id="stop2674" />
      <stop
         style="stop-color:#0c9ef0;stop-opacity:0.10196079"
         offset="0.89410537"
         id="stop2676" />
      <stop
         style="stop-color:#0c9ef0;stop-opacity:0.09019608"
         offset="0.90411425"
         id="stop2678" />
      <stop
         style="stop-color:#0c9ef0;stop-opacity:0.0627451"
         offset="0.92999583"
         id="stop2680" />
      <stop
         style="stop-color:#0c9ef0;stop-opacity:0.03529412"
         offset="0.962385"
         id="stop2682" />
      <stop
         style="stop-color:#0c9ef0;stop-opacity:0"
         offset="1"
         id="stop2684" />
    </linearGradient>
    <linearGradient
       inkscape:collect="always"
       id="linearGradient1466">
      <stop
         style="stop-color:#7fe499;stop-opacity:1"
         offset="0"
         id="stop1442" />
      <stop
         style="stop-color:#7fe499;stop-opacity:1"
         offset="0.55700213"
         id="stop1444" />
      <stop
         style="stop-color:#7fe499;stop-opacity:0.7764706"
         offset="0.64915591"
         id="stop1446" />
      <stop
         style="stop-color:#7fe499;stop-opacity:0.60000002"
         offset="0.71585816"
         id="stop1448" />
      <stop
         style="stop-color:#7fe499;stop-opacity:0.45490196"
         offset="0.75724065"
         id="stop1450" />
      <stop
         style="stop-color:#7fe499;stop-opacity:0.32156864"
         offset="0.79499805"
         id="stop1452" />
      <stop
         style="stop-color:#7fe499;stop-opacity:0.25098041"
         offset="0.82269931"
         id="stop1454" />
      <stop
         style="stop-color:#7fe499;stop-opacity:0.10196079"
         offset="0.89410537"
         id="stop1456" />
      <stop
         style="stop-color:#7fe499;stop-opacity:0.09019608"
         offset="0.90411425"
         id="stop1458" />
      <stop
         style="stop-color:#7fe499;stop-opacity:0.0627451"
         offset="0.92999583"
         id="stop1460" />
      <stop
         style="stop-color:#7fe499;stop-opacity:0.03529412"
         offset="0.962385"
         id="stop1462" />
      <stop
         style="stop-color:#7fe499;stop-opacity:0"
         offset="1"
         id="stop1464" />
    </linearGradient>
    <pattern
       id="pattern912"
       patternTransform="matrix(.092164 0 0 .092164 8.9239 45.459)"
       xlink:href="#b" />
    <pattern
       id="pattern909"
       patternTransform="matrix(.092164 0 0 .092164 25.852 49.59)"
       xlink:href="#c" />
    <linearGradient
       id="a">
      <stop
         stop-color="#d9dadd"
         offset="0"
         id="stop4" />
      <stop
         stop-color="#e3e4e6"
         offset=".25424"
         id="stop6" />
      <stop
         stop-color="#d8dbde"
         offset=".74364"
         id="stop8" />
      <stop
         stop-color="#f7f7f8"
         offset="1"
         id="stop10" />
    </linearGradient>
    <clipPath
       id="p">
      <path
         d="m45.102 268 3.7755 30.736c-5e-6 2.8428 5.3769 5.1475 12.01 5.1475 6.6332 0 12.011-2.3047 12.011-5.1475l3.7419-30.736c-7.94e-4 2.1771-7.0606 3.9419-15.769 3.9419-8.7084 2e-5 -15.768-1.7648-15.769-3.9419zm31.538 0c0-0.0854-0.01476-0.17017-0.03617-0.25425 0.02299 0.0846 0.03506 0.16942 0.03617 0.25425z"
         color="#000000"
         fill="#ffffff"
         opacity=".691"
         id="path13" />
    </clipPath>
    <filter
       id="k"
       x="-0.084442155"
       y="-0.1872619"
       width="1.1688843"
       height="1.3745238"
       color-interpolation-filters="sRGB">
      <feGaussianBlur
         stdDeviation="1.0791004"
         id="feGaussianBlur16" />
    </filter>
    <clipPath
       id="n">
      <path
         d="m45.102 268 3.7755 30.736c-5e-6 2.8428 5.3769 5.1475 12.01 5.1475 6.6332 0 12.011-2.3047 12.011-5.1475l3.7419-30.736c-7.94e-4 2.1771-7.0606 3.9419-15.769 3.9419-8.7084 2e-5 -15.768-1.7648-15.769-3.9419zm31.538 0c0-0.0854-0.01476-0.17017-0.03617-0.25425 0.02299 0.0846 0.03506 0.16942 0.03617 0.25425z"
         color="#000000"
         fill="#ffffff"
         opacity=".691"
         id="path19" />
    </clipPath>
    <filter
       id="i"
       x="-0.36659388"
       y="-0.59061406"
       width="1.7331878"
       height="2.1812281"
       color-interpolation-filters="sRGB">
      <feGaussianBlur
         stdDeviation="1.6947276"
         id="feGaussianBlur22" />
    </filter>
    <linearGradient
       id="f"
       x1="170.46"
       x2="289.66"
       y1="713.63"
       y2="713.63"
       gradientTransform="matrix(.38718 0 0 .38718 -57.076 -241.47)"
       gradientUnits="userSpaceOnUse"
       xlink:href="#a" />
    <linearGradient
       id="e"
       x1="170.46"
       x2="289.66"
       y1="704.73"
       y2="704.73"
       gradientTransform="matrix(.38718 0 0 .38718 -57.076 -241.47)"
       gradientUnits="userSpaceOnUse">
      <stop
         stop-color="#fbfbfc"
         offset="0"
         id="stop26" />
      <stop
         stop-color="#ccced2"
         offset=".25424"
         id="stop28" />
      <stop
         stop-color="#f3f4f5"
         offset=".74364"
         id="stop30" />
      <stop
         stop-color="#d6d6db"
         offset="1"
         id="stop32" />
    </linearGradient>
    <clipPath
       id="o">
      <path
         d="m45.102 268 3.7755 30.736c-5e-6 2.8428 5.3769 5.1475 12.01 5.1475 6.6332 0 12.011-2.3047 12.011-5.1475l3.7419-30.736c-7.94e-4 2.1771-7.0606 3.9419-15.769 3.9419-8.7084 2e-5 -15.768-1.7648-15.769-3.9419zm31.538 0c0-0.0854-0.01476-0.17017-0.03617-0.25425 0.02299 0.0846 0.03506 0.16942 0.03617 0.25425z"
         color="#000000"
         fill="#ffffff"
         opacity=".691"
         id="path35" />
    </clipPath>
    <filter
       id="j"
       x="-0.084442155"
       y="-0.1872619"
       width="1.1688843"
       height="1.3745238"
       color-interpolation-filters="sRGB">
      <feGaussianBlur
         stdDeviation="1.0791004"
         id="feGaussianBlur38" />
    </filter>
    <clipPath
       id="m">
      <path
         d="m45.102 268 3.7755 30.736c-5e-6 2.8428 5.3769 5.1475 12.01 5.1475 6.6332 0 12.011-2.3047 12.011-5.1475l3.7419-30.736c-7.94e-4 2.1771-7.0606 3.9419-15.769 3.9419-8.7084 2e-5 -15.768-1.7648-15.769-3.9419zm31.538 0c0-0.0854-0.01476-0.17017-0.03617-0.25425 0.02299 0.0846 0.03506 0.16942 0.03617 0.25425z"
         color="#000000"
         fill="#ffffff"
         opacity=".691"
         id="path41" />
    </clipPath>
    <filter
       id="h"
       x="-0.36659388"
       y="-0.59061406"
       width="1.7331878"
       height="2.1812281"
       color-interpolation-filters="sRGB">
      <feGaussianBlur
         stdDeviation="1.6947276"
         id="feGaussianBlur44" />
    </filter>
    <clipPath
       id="l">
      <g
         transform="translate(-3.4018,-18.615)"
         id="g53">
        <path
           transform="matrix(.26458 0 0 .26458 0 97)"
           d="m170.46 646.3 14.27 116.17c-2e-5 10.744 20.322 19.455 45.393 19.455s45.395-8.7107 45.395-19.455l14.143-116.17c-3e-3 8.2284-26.686 14.899-59.6 14.898-32.914 8e-5 -59.597-6.67-59.6-14.898zm119.2 0c0-0.3229-0.0558-0.64315-0.13672-0.96094 0.0869 0.31986 0.13251 0.64034 0.13672 0.96094z"
           color="#000000"
           fill="url(#d)"
           opacity=".915"
           id="path47" />
        <path
           d="m46.505 302.14c7.684-6.0136 8.7531-2.8063 14.767-2.205 6.0136 0.60135 15.903-4.2763 15.903-4.2763l-1.0023 13.631s-28.531 2.0713-29.667-7.1495z"
           clip-path="url(#o)"
           fill="#ffffff"
           fill-rule="evenodd"
           filter="url(#j)"
           opacity=".729"
           id="path49" />
        <path
           d="m60.737 305.42c6.7486-6.3476 8.1517-7.4836 10.758-1.6704 2.6059 5.8131-10.758 1.6704-10.758 1.6704z"
           clip-path="url(#m)"
           fill="#a4a4a4"
           fill-rule="evenodd"
           filter="url(#h)"
           opacity=".483"
           id="path51" />
      </g>
    </clipPath>
    <linearGradient
       id="d"
       x1="170.46"
       x2="289.66"
       y1="713.63"
       y2="713.63"
       gradientUnits="userSpaceOnUse"
       xlink:href="#a" />
    <filter
       id="g"
       x="-0.24030987"
       y="-0.031949436"
       width="1.4806197"
       height="1.0638989"
       color-interpolation-filters="sRGB">
      <feGaussianBlur
         stdDeviation="0.50623594"
         id="feGaussianBlur57" />
    </filter>
    <pattern
       id="b"
       width="500.75668"
       height="171.65068"
       patternTransform="matrix(.26458 0 0 .26458 36.58 237.81)"
       patternUnits="userSpaceOnUse">
      <path
         transform="matrix(15.878 0 0 15.878 -716.12 -4653.4)"
         d="m46.505 302.14c7.684-6.0136 8.7531-2.8063 14.767-2.205 6.0136 0.60135 15.903-4.2763 15.903-4.2763l-1.0023 13.631s-28.531 2.0713-29.667-7.1495z"
         clip-path="url(#p)"
         fill="#fff"
         fill-rule="evenodd"
         filter="url(#k)"
         opacity=".729"
         id="path60" />
    </pattern>
    <pattern
       id="c"
       width="305.31874"
       height="126.84432"
       patternTransform="matrix(.26458 0 0 .26458 85.177 249.67)"
       patternUnits="userSpaceOnUse">
      <path
         transform="matrix(15.878 0 0 15.878 -899.79 -4698.2)"
         d="m60.737 305.42c6.7486-6.3476 8.1517-7.4836 10.758-1.6704 2.6059 5.8131-10.758 1.6704-10.758 1.6704z"
         clip-path="url(#n)"
         fill="#a4a4a4"
         fill-rule="evenodd"
         filter="url(#i)"
         opacity=".483"
         id="path63" />
    </pattern>
    <linearGradient
       inkscape:collect="always"
       xlink:href="#linearGradient2746"
       id="linearGradient2748"
       x1="2066.7046"
       y1="629.94073"
       x2="2066.7046"
       y2="421.86755"
       gradientUnits="userSpaceOnUse"
       gradientTransform="matrix(0.26330423,0,0,0.26330423,-509.14287,-105.07751)" />
    <linearGradient
       inkscape:collect="always"
       id="linearGradient2746">
      <stop
         style="stop-color:#5ac3de;stop-opacity:1"
         offset="0"
         id="stop2742" />
      <stop
         style="stop-color:#24afe4;stop-opacity:1"
         offset="0.09260342"
         id="stop6946" />
      <stop
         style="stop-color:#40f5b8;stop-opacity:1"
         offset="0.92603415"
         id="stop5176" />
      <stop
         style="stop-color:#6cfece;stop-opacity:1"
         offset="1"
         id="stop2744" />
    </linearGradient>
    <radialGradient
       inkscape:collect="always"
       xlink:href="#linearGradient13343"
       id="radialGradient17154"
       gradientUnits="userSpaceOnUse"
       gradientTransform="matrix(0.24647928,0,0,0.22821789,-312.01,-158.01759)"
       cx="1309.5074"
       cy="862.77704"
       fx="1309.5074"
       fy="862.77704"
       r="50.415894" />
    <linearGradient
       inkscape:collect="always"
       id="linearGradient13343">
      <stop
         style="stop-color:#e49a7f;stop-opacity:1;"
         offset="0"
         id="stop13339" />
      <stop
         style="stop-color:#e29b7f;stop-opacity:1"
         offset="0.55700213"
         id="stop13430" />
      <stop
         style="stop-color:#e29a7f;stop-opacity:0.77647059;"
         offset="0.64915591"
         id="stop15868" />
      <stop
         style="stop-color:#e29a7f;stop-opacity:0.6;"
         offset="0.71585816"
         id="stop16196" />
      <stop
         style="stop-color:#e29a7f;stop-opacity:0.45490196;"
         offset="0.75724065"
         id="stop16262" />
      <stop
         style="stop-color:#e29a7f;stop-opacity:0.32156863;"
         offset="0.79499805"
         id="stop16522" />
      <stop
         style="stop-color:#e29a7f;stop-opacity:0.25098039;"
         offset="0.82269931"
         id="stop16846" />
      <stop
         style="stop-color:#e29a7f;stop-opacity:0.10196078;"
         offset="0.89410537"
         id="stop16912" />
      <stop
         style="stop-color:#e29a7f;stop-opacity:0.09019608;"
         offset="0.90411425"
         id="stop15476" />
      <stop
         style="stop-color:#e29a7f;stop-opacity:0.0627451;"
         offset="0.92999583"
         id="stop15346" />
      <stop
         style="stop-color:#e39a7f;stop-opacity:0.03529412;"
         offset="0.962385"
         id="stop15214" />
      <stop
         style="stop-color:#e49a7f;stop-opacity:0;"
         offset="1"
         id="stop13341" />
    </linearGradient>
    <radialGradient
       inkscape:collect="always"
       xlink:href="#linearGradient13343"
       id="radialGradient13345"
       cx="1309.5074"
       cy="862.77704"
       fx="1309.5074"
       fy="862.77704"
       r="50.415894"
       gradientTransform="matrix(0.24647928,0,0,0.22821789,-304.16753,-163.73385)"
       gradientUnits="userSpaceOnUse" />
    <radialGradient
       inkscape:collect="always"
       xlink:href="#linearGradient13343"
       id="radialGradient17162"
       gradientUnits="userSpaceOnUse"
       gradientTransform="matrix(0.20916539,0,0,0.17463189,-248.13761,-116.97453)"
       cx="1309.5074"
       cy="862.77704"
       fx="1309.5074"
       fy="862.77704"
       r="50.415894" />
    <radialGradient
       inkscape:collect="always"
       xlink:href="#linearGradient1466"
       id="radialGradient1233"
       gradientUnits="userSpaceOnUse"
       gradientTransform="matrix(0.29548338,0.09440805,-0.04447355,0.2048799,-302.63458,-264.34104)"
       cx="1309.5074"
       cy="862.77704"
       fx="1309.5074"
       fy="862.77704"
       r="50.415894"
       spreadMethod="reflect" />
    <radialGradient
       inkscape:collect="always"
       xlink:href="#linearGradient2686"
       id="radialGradient2641"
       gradientUnits="userSpaceOnUse"
       gradientTransform="matrix(0.63169317,0,0,0.64081017,-793.70636,-495.08988)"
       cx="1309.5074"
       cy="862.77704"
       fx="1309.5074"
       fy="862.77704"
       r="50.415894" />
  </defs>
  <path
     id="rect856"
     style="fill:url(#linearGradient2748);fill-opacity:1;stroke-width:0.789913;stroke-linecap:round;stroke-linejoin:round;stroke-opacity:0.0572293;paint-order:stroke markers fill"
     d="m 11.50391,5.3098127 c -2.9580392,0 -5.3390992,2.381599 -5.3390992,5.3396273 l 4.3676652,40.356915 c 0.818823,5.79147 4.453396,9.985503 9.985496,9.985503 h 23.099286 c 5.532101,0 9.421841,-4.453406 9.985497,-9.985503 L 57.969918,10.64944 c 0,-2.9580283 -2.381086,-5.3396273 -5.339125,-5.3396273 H 47.984396 16.150308 Z"
     sodipodi:nodetypes="sccccccsccs" />
  <circle
     style="opacity:0.225361;fill:#ffffff;fill-opacity:0.63250935;stroke-width:3;stroke-linecap:round;stroke-linejoin:round;stroke-opacity:0.0572293;paint-order:stroke markers fill"
     id="path2793"
     cx="32.901958"
     cy="30.1793"
     r="11.601872" />
  <ellipse
     style="fill:url(#radialGradient13345);fill-opacity:1;stroke-width:1.24073;stroke-linecap:round;stroke-linejoin:round;stroke-opacity:0.0572293;paint-order:stroke markers fill"
     id="path11648"
     cx="18.598915"
     cy="33.167305"
     rx="12.426474"
     ry="11.505809" />
  <path
     id="ellipse17152"
     style="fill:url(#radialGradient17154);fill-opacity:1;stroke-width:1.24073;stroke-linecap:round;stroke-linejoin:round;stroke-opacity:0.0572293;paint-order:stroke markers fill"
     d="M 10.755859 27.376953 A 12.426474 11.505809 0 0 0 8.0097656 27.691406 L 10.464844 50.369141 A 12.426474 11.505809 0 0 0 10.755859 50.388672 A 12.426474 11.505809 0 0 0 23.183594 38.882812 A 12.426474 11.505809 0 0 0 10.755859 27.376953 z " />
  <ellipse
     style="fill:url(#radialGradient17162);fill-opacity:1;stroke-width:0.999808;stroke-linecap:round;stroke-linejoin:round;stroke-opacity:0.0572293;paint-order:stroke markers fill"
     id="ellipse17160"
     cx="25.76601"
     cy="33.693859"
     rx="10.545259"
     ry="8.8042231" />
  <path
     id="circle3157"
     style="opacity:0.225361;fill:#ff9f9f;fill-opacity:0.632509;stroke-width:3;stroke-linecap:round;stroke-linejoin:round;stroke-opacity:0.0572293;paint-order:stroke markers fill"
     d="M 51.037109 22.583984 A 11.601872 11.601872 0 0 0 39.435547 34.185547 A 11.601872 11.601872 0 0 0 51.037109 45.787109 A 11.601872 11.601872 0 0 0 54.216797 45.337891 L 56.529297 23.966797 A 11.601872 11.601872 0 0 0 51.037109 22.583984 z " />
  <path
     id="ellipse1231"
     style="opacity:0.69382;fill:url(#radialGradient1233);fill-opacity:1;stroke-width:1.33103;stroke-linecap:round;stroke-linejoin:round;stroke-opacity:0.0572293;paint-order:stroke markers fill"
     d="m 42.302734,24.688362 a 15.697805,10.482149 22.186594 0 0 -11.267578,6.603949 15.697805,10.482149 22.186594 0 0 12.654297,15.089327 15.697805,10.482149 22.186594 0 0 10.345703,0.556845 l 1.539063,-17.24799 a 15.697805,10.482149 22.186594 0 0 -7.400391,-3.966637 15.697805,10.482149 22.186594 0 0 -5.871094,-1.035494 z" />
  <path
     id="ellipse2639"
     style="fill:url(#radialGradient2641);fill-opacity:1;stroke-width:3.47308;stroke-linecap:round;stroke-linejoin:round;stroke-opacity:0.0572293;paint-order:stroke markers fill;opacity:0.71426144"
     d="M 33.5 26.201172 A 35.470478 31.584551 0 0 0 8.8222656 35.207031 L 10.533203 51.005859 C 11.352026 56.797329 14.985478 60.992188 20.517578 60.992188 L 43.617188 60.992188 C 49.149288 60.992188 53.03986 56.537956 53.603516 51.005859 L 55.546875 33.046875 A 35.470478 31.584551 0 0 0 33.5 26.201172 z " />
  <path
     style="fill:#ffffff;fill-opacity:0.988939;fill-rule:evenodd;stroke:none;stroke-width:1.5142px;stroke-linecap:butt;stroke-linejoin:miter;stroke-opacity:1"
     d="m 29.010383,20.293448 c 0,0 1.660777,1.331128 2.726742,2.726741 1.065965,1.395614 3.179227,5.903013 3.179227,5.903013 l -0.907928,0.455442 5.450526,0.907928 1.818814,-4.995083 -0.910885,0.452485 C 39.371166,23.574341 38.150697,21.62233 36.279723,20.293448 Z m -1.100161,0.65359 c -0.248422,0.0062 -0.488565,0.08399 -0.715695,0.254337 -1.81704,1.36278 -3.179227,4.998043 -3.179227,4.998043 l 4.995083,2.723784 2.726742,-4.542598 c 0,0 -2.087939,-3.47704 -3.826903,-3.433566 z m -2.768146,8.768752 -5.222805,0.990736 0.854696,0.553039 c -1.355227,1.965226 -2.408536,4.011905 -2.593659,6.299306 l 3.717478,6.246073 c 0,0 0.29524,-2.108417 0.949332,-3.73818 0.654158,-1.629753 3.445396,-5.749226 3.445396,-5.749226 l 0.854694,0.547122 z m 18.31235,1.265777 -4.986212,2.735613 2.354108,4.746661 c 0,0 4.055482,0.11564 4.956638,-1.372243 0.128737,-0.212553 0.192499,-0.456219 0.17153,-0.739355 -0.167773,-2.265094 -2.496064,-5.370676 -2.496064,-5.370676 z m -8.064887,6.698558 -3.705647,4.101942 3.226545,4.226155 0.109432,-1.011438 c 2.364078,0.331487 4.668099,0.356227 6.796152,-0.502761 l 3.918583,-6.121862 c 0,0 -2.01762,0.680044 -3.767755,0.825121 -1.750134,0.145075 -6.68377,-0.505719 -6.68377,-0.505719 z M 24.0153,39.371769 c 0,0 -1.920378,3.573238 -0.993694,5.045361 0.132387,0.210303 0.323028,0.376951 0.585569,0.485016 2.100337,0.86451 5.920757,0.174489 5.920757,0.174489 l -0.215891,-5.684164 z"
     id="path919"
     inkscape:connector-curvature="0" />
</svg>
