<?xml version="1.0" encoding="UTF-8" standalone="no"?>
<svg
   width="64"
   height="64"
   version="1.1"
   viewBox="0 0 64 64"
   id="svg80"
   sodipodi:docname="xfce-trash_empty.svg"
   inkscape:version="1.1.2 (0a00cf5339, 2022-02-04)"
   xmlns:inkscape="http://www.inkscape.org/namespaces/inkscape"
   xmlns:sodipodi="http://sodipodi.sourceforge.net/DTD/sodipodi-0.dtd"
   xmlns:xlink="http://www.w3.org/1999/xlink"
   xmlns="http://www.w3.org/2000/svg"
   xmlns:svg="http://www.w3.org/2000/svg">
  <sodipodi:namedview
     id="namedview82"
     pagecolor="#ffffff"
     bordercolor="#666666"
     borderopacity="1.0"
     inkscape:pageshadow="2"
     inkscape:pageopacity="0.0"
     inkscape:pagecheckerboard="0"
     showgrid="false"
     inkscape:zoom="3.5079126"
     inkscape:cx="-1.567884"
     inkscape:cy="44.898496"
     inkscape:window-width="1920"
     inkscape:window-height="1030"
     inkscape:window-x="0"
     inkscape:window-y="24"
     inkscape:window-maximized="1"
     inkscape:current-layer="svg80" />
  <defs
     id="defs66">
    <pattern
       id="pattern912"
       patternTransform="matrix(.092164 0 0 .092164 8.9239 45.459)"
       xlink:href="#b" />
    <pattern
       id="pattern909"
       patternTransform="matrix(.092164 0 0 .092164 25.852 49.59)"
       xlink:href="#c" />
    <linearGradient
       id="a">
      <stop
         stop-color="#d9dadd"
         offset="0"
         id="stop4" />
      <stop
         stop-color="#e3e4e6"
         offset=".25424"
         id="stop6" />
      <stop
         stop-color="#d8dbde"
         offset=".74364"
         id="stop8" />
      <stop
         stop-color="#f7f7f8"
         offset="1"
         id="stop10" />
    </linearGradient>
    <clipPath
       id="p">
      <path
         d="m45.102 268 3.7755 30.736c-5e-6 2.8428 5.3769 5.1475 12.01 5.1475 6.6332 0 12.011-2.3047 12.011-5.1475l3.7419-30.736c-7.94e-4 2.1771-7.0606 3.9419-15.769 3.9419-8.7084 2e-5 -15.768-1.7648-15.769-3.9419zm31.538 0c0-0.0854-0.01476-0.17017-0.03617-0.25425 0.02299 0.0846 0.03506 0.16942 0.03617 0.25425z"
         color="#000000"
         fill="#ffffff"
         opacity=".691"
         id="path13" />
    </clipPath>
    <filter
       id="k"
       x="-0.084442155"
       y="-0.1872619"
       width="1.1688843"
       height="1.3745238"
       color-interpolation-filters="sRGB">
      <feGaussianBlur
         stdDeviation="1.0791004"
         id="feGaussianBlur16" />
    </filter>
    <clipPath
       id="n">
      <path
         d="m45.102 268 3.7755 30.736c-5e-6 2.8428 5.3769 5.1475 12.01 5.1475 6.6332 0 12.011-2.3047 12.011-5.1475l3.7419-30.736c-7.94e-4 2.1771-7.0606 3.9419-15.769 3.9419-8.7084 2e-5 -15.768-1.7648-15.769-3.9419zm31.538 0c0-0.0854-0.01476-0.17017-0.03617-0.25425 0.02299 0.0846 0.03506 0.16942 0.03617 0.25425z"
         color="#000000"
         fill="#ffffff"
         opacity=".691"
         id="path19" />
    </clipPath>
    <filter
       id="i"
       x="-0.36659388"
       y="-0.59061406"
       width="1.7331878"
       height="2.1812281"
       color-interpolation-filters="sRGB">
      <feGaussianBlur
         stdDeviation="1.6947276"
         id="feGaussianBlur22" />
    </filter>
    <linearGradient
       id="f"
       x1="170.46"
       x2="289.66"
       y1="713.63"
       y2="713.63"
       gradientTransform="matrix(.38718 0 0 .38718 -57.076 -241.47)"
       gradientUnits="userSpaceOnUse"
       xlink:href="#a" />
    <linearGradient
       id="e"
       x1="170.46"
       x2="289.66"
       y1="704.73"
       y2="704.73"
       gradientTransform="matrix(.38718 0 0 .38718 -57.076 -241.47)"
       gradientUnits="userSpaceOnUse">
      <stop
         stop-color="#fbfbfc"
         offset="0"
         id="stop26" />
      <stop
         stop-color="#ccced2"
         offset=".25424"
         id="stop28" />
      <stop
         stop-color="#f3f4f5"
         offset=".74364"
         id="stop30" />
      <stop
         stop-color="#d6d6db"
         offset="1"
         id="stop32" />
    </linearGradient>
    <clipPath
       id="o">
      <path
         d="m45.102 268 3.7755 30.736c-5e-6 2.8428 5.3769 5.1475 12.01 5.1475 6.6332 0 12.011-2.3047 12.011-5.1475l3.7419-30.736c-7.94e-4 2.1771-7.0606 3.9419-15.769 3.9419-8.7084 2e-5 -15.768-1.7648-15.769-3.9419zm31.538 0c0-0.0854-0.01476-0.17017-0.03617-0.25425 0.02299 0.0846 0.03506 0.16942 0.03617 0.25425z"
         color="#000000"
         fill="#ffffff"
         opacity=".691"
         id="path35" />
    </clipPath>
    <filter
       id="j"
       x="-0.084442155"
       y="-0.1872619"
       width="1.1688843"
       height="1.3745238"
       color-interpolation-filters="sRGB">
      <feGaussianBlur
         stdDeviation="1.0791004"
         id="feGaussianBlur38" />
    </filter>
    <clipPath
       id="m">
      <path
         d="m45.102 268 3.7755 30.736c-5e-6 2.8428 5.3769 5.1475 12.01 5.1475 6.6332 0 12.011-2.3047 12.011-5.1475l3.7419-30.736c-7.94e-4 2.1771-7.0606 3.9419-15.769 3.9419-8.7084 2e-5 -15.768-1.7648-15.769-3.9419zm31.538 0c0-0.0854-0.01476-0.17017-0.03617-0.25425 0.02299 0.0846 0.03506 0.16942 0.03617 0.25425z"
         color="#000000"
         fill="#ffffff"
         opacity=".691"
         id="path41" />
    </clipPath>
    <filter
       id="h"
       x="-0.36659388"
       y="-0.59061406"
       width="1.7331878"
       height="2.1812281"
       color-interpolation-filters="sRGB">
      <feGaussianBlur
         stdDeviation="1.6947276"
         id="feGaussianBlur44" />
    </filter>
    <clipPath
       id="l">
      <g
         transform="translate(-3.4018,-18.615)"
         id="g53">
        <path
           transform="matrix(.26458 0 0 .26458 0 97)"
           d="m170.46 646.3 14.27 116.17c-2e-5 10.744 20.322 19.455 45.393 19.455s45.395-8.7107 45.395-19.455l14.143-116.17c-3e-3 8.2284-26.686 14.899-59.6 14.898-32.914 8e-5 -59.597-6.67-59.6-14.898zm119.2 0c0-0.3229-0.0558-0.64315-0.13672-0.96094 0.0869 0.31986 0.13251 0.64034 0.13672 0.96094z"
           color="#000000"
           fill="url(#d)"
           opacity=".915"
           id="path47" />
        <path
           d="m46.505 302.14c7.684-6.0136 8.7531-2.8063 14.767-2.205 6.0136 0.60135 15.903-4.2763 15.903-4.2763l-1.0023 13.631s-28.531 2.0713-29.667-7.1495z"
           clip-path="url(#o)"
           fill="#ffffff"
           fill-rule="evenodd"
           filter="url(#j)"
           opacity=".729"
           id="path49" />
        <path
           d="m60.737 305.42c6.7486-6.3476 8.1517-7.4836 10.758-1.6704 2.6059 5.8131-10.758 1.6704-10.758 1.6704z"
           clip-path="url(#m)"
           fill="#a4a4a4"
           fill-rule="evenodd"
           filter="url(#h)"
           opacity=".483"
           id="path51" />
      </g>
    </clipPath>
    <linearGradient
       id="d"
       x1="170.46"
       x2="289.66"
       y1="713.63"
       y2="713.63"
       gradientUnits="userSpaceOnUse"
       xlink:href="#a" />
    <filter
       id="g"
       x="-0.24030987"
       y="-0.031949436"
       width="1.4806197"
       height="1.0638989"
       color-interpolation-filters="sRGB">
      <feGaussianBlur
         stdDeviation="0.50623594"
         id="feGaussianBlur57" />
    </filter>
    <pattern
       id="b"
       width="500.75668"
       height="171.65068"
       patternTransform="matrix(.26458 0 0 .26458 36.58 237.81)"
       patternUnits="userSpaceOnUse">
      <path
         transform="matrix(15.878 0 0 15.878 -716.12 -4653.4)"
         d="m46.505 302.14c7.684-6.0136 8.7531-2.8063 14.767-2.205 6.0136 0.60135 15.903-4.2763 15.903-4.2763l-1.0023 13.631s-28.531 2.0713-29.667-7.1495z"
         clip-path="url(#p)"
         fill="#fff"
         fill-rule="evenodd"
         filter="url(#k)"
         opacity=".729"
         id="path60" />
    </pattern>
    <pattern
       id="c"
       width="305.31874"
       height="126.84432"
       patternTransform="matrix(.26458 0 0 .26458 85.177 249.67)"
       patternUnits="userSpaceOnUse">
      <path
         transform="matrix(15.878 0 0 15.878 -899.79 -4698.2)"
         d="m60.737 305.42c6.7486-6.3476 8.1517-7.4836 10.758-1.6704 2.6059 5.8131-10.758 1.6704-10.758 1.6704z"
         clip-path="url(#n)"
         fill="#a4a4a4"
         fill-rule="evenodd"
         filter="url(#i)"
         opacity=".483"
         id="path63" />
    </pattern>
    <linearGradient
       inkscape:collect="always"
       xlink:href="#linearGradient2746"
       id="linearGradient2748"
       x1="2066.7046"
       y1="629.94073"
       x2="2066.7046"
       y2="421.86755"
       gradientUnits="userSpaceOnUse"
       gradientTransform="matrix(0.26330423,0,0,0.26330423,-509.14287,-105.07751)" />
    <linearGradient
       inkscape:collect="always"
       id="linearGradient2746">
      <stop
         style="stop-color:#5ac3de;stop-opacity:1"
         offset="0"
         id="stop2742" />
      <stop
         style="stop-color:#24afe4;stop-opacity:1"
         offset="0.09260342"
         id="stop6946" />
      <stop
         style="stop-color:#40f5b8;stop-opacity:1"
         offset="0.92603415"
         id="stop5176" />
      <stop
         style="stop-color:#6cfece;stop-opacity:1"
         offset="1"
         id="stop2744" />
    </linearGradient>
  </defs>
  <path
     id="rect856"
     style="fill:url(#linearGradient2748);fill-opacity:1;stroke-width:0.789913;stroke-linecap:round;stroke-linejoin:round;stroke-opacity:0.0572293;paint-order:stroke markers fill"
     d="m 11.50391,5.3098127 c -2.9580392,0 -5.3390992,2.381599 -5.3390992,5.3396273 l 4.3676652,40.356915 c 0.818823,5.79147 4.453396,9.985503 9.985496,9.985503 h 23.099286 c 5.532101,0 9.421841,-4.453406 9.985497,-9.985503 L 57.969918,10.64944 c 0,-2.9580283 -2.381086,-5.3396273 -5.339125,-5.3396273 H 47.984396 16.150308 Z"
     sodipodi:nodetypes="sccccccsccs" />
  <path
     style="fill:#ffffff;fill-opacity:0.988939;fill-rule:evenodd;stroke:none;stroke-width:1.5142px;stroke-linecap:butt;stroke-linejoin:miter;stroke-opacity:1"
     d="m 29.010383,20.293448 c 0,0 1.660777,1.331128 2.726742,2.726741 1.065965,1.395614 3.179227,5.903013 3.179227,5.903013 l -0.907928,0.455442 5.450526,0.907928 1.818814,-4.995083 -0.910885,0.452485 C 39.371166,23.574341 38.150697,21.62233 36.279723,20.293448 Z m -1.100161,0.65359 c -0.248422,0.0062 -0.488565,0.08399 -0.715695,0.254337 -1.81704,1.36278 -3.179227,4.998043 -3.179227,4.998043 l 4.995083,2.723784 2.726742,-4.542598 c 0,0 -2.087939,-3.47704 -3.826903,-3.433566 z m -2.768146,8.768752 -5.222805,0.990736 0.854696,0.553039 c -1.355227,1.965226 -2.408536,4.011905 -2.593659,6.299306 l 3.717478,6.246073 c 0,0 0.29524,-2.108417 0.949332,-3.73818 0.654158,-1.629753 3.445396,-5.749226 3.445396,-5.749226 l 0.854694,0.547122 z m 18.31235,1.265777 -4.986212,2.735613 2.354108,4.746661 c 0,0 4.055482,0.11564 4.956638,-1.372243 0.128737,-0.212553 0.192499,-0.456219 0.17153,-0.739355 -0.167773,-2.265094 -2.496064,-5.370676 -2.496064,-5.370676 z m -8.064887,6.698558 -3.705647,4.101942 3.226545,4.226155 0.109432,-1.011438 c 2.364078,0.331487 4.668099,0.356227 6.796152,-0.502761 l 3.918583,-6.121862 c 0,0 -2.01762,0.680044 -3.767755,0.825121 -1.750134,0.145075 -6.68377,-0.505719 -6.68377,-0.505719 z M 24.0153,39.371769 c 0,0 -1.920378,3.573238 -0.993694,5.045361 0.132387,0.210303 0.323028,0.376951 0.585569,0.485016 2.100337,0.86451 5.920757,0.174489 5.920757,0.174489 l -0.215891,-5.684164 z"
     id="path919"
     inkscape:connector-curvature="0" />
</svg>
